<svg viewBox="0 0 218 35" fill="none" xmlns="http://www.w3.org/2000/svg">
<path d="M2.68949 21.0001C2.68949 24.4767 4.77955 25.6897 6.73781 25.6897C8.79962 25.6897 10.6292 24.4767 10.6292 21.7035C10.6292 19.8215 9.37706 18.5772 7.3121 17.4954L5.14359 16.348C2.66439 15.0725 1.56601 13.1278 1.56601 10.5454C1.56601 6.87818 4.23036 4.89917 7.41566 4.89917C11.0466 4.89917 12.2987 6.84379 12.2987 8.31319C12.2987 8.98224 11.9598 9.71695 10.6794 10.1296L10.4692 10.0014C10.4692 7.00323 8.87494 6.17474 7.25875 6.17474C5.3256 6.17474 3.62782 7.51284 3.62782 9.71382C3.62782 11.5646 4.51594 12.7433 6.63111 13.8594L8.64271 14.9443C11.7778 16.6357 12.7946 18.3583 12.7946 20.8438C12.7946 24.7018 9.97332 27.0309 6.50244 27.0309C2.76795 27.0309 0.756348 24.9581 0.756348 22.8228C0.756348 21.963 1.07017 21.1314 2.53258 20.8469L2.68949 21.0064V21.0001Z" fill="#1D1C1C"/>
<path d="M21.3588 25.1144C22.8997 25.1144 24.2837 24.4141 25.1969 23.1385H25.3287C25.4323 23.2667 25.539 23.5199 25.539 23.7763C25.539 24.7642 23.7125 27.0278 20.7092 27.0278C16.8461 27.0278 14.8345 23.9357 14.8345 18.8303C14.8345 13.7249 17.3137 10.858 20.5523 10.858C23.791 10.858 25.5672 13.0278 25.5672 17.5548C25.5672 18.2895 25.0965 18.4802 24.6257 18.4802H17.1317C17.1568 23.3261 19.0115 25.1144 21.362 25.1144H21.3588ZM22.7177 17.2046C23.2135 17.1734 23.3171 16.8545 23.3171 16.5668C23.3171 13.2185 22.1936 12.1336 20.4707 12.1336C19.3221 12.1336 17.3388 12.9308 17.1536 17.3328C19.6862 17.3015 21.7229 17.2703 22.7146 17.2046H22.7177Z" fill="#1D1C1C"/>
<path d="M31.8028 27.0278C29.3236 27.0278 27.7294 25.2426 27.7294 22.6915C27.7294 19.3744 30.1584 18.1957 33.9964 18.1957C34.3353 18.1957 35.0414 18.2583 35.3804 18.3239C35.4055 17.8456 35.4055 17.4954 35.4055 17.0483C35.4055 15.9635 35.327 14.8474 35.0383 14.2096C34.5958 13.2529 33.6292 12.8371 32.5591 12.8371C30.7295 12.8371 29.5809 13.8907 29.0066 14.9099L28.6143 14.7192C28.8748 13.2842 29.945 10.8612 33.1585 10.8612C35.7162 10.8612 37.5991 12.0086 37.5991 15.6759C37.5991 16.8545 37.5206 19.9496 37.5206 22.3726C37.5206 24.7956 38.0698 25.499 39.6358 25.5303V25.8179C39.1651 26.3931 38.4339 26.9027 37.574 26.9027C36.4003 26.9027 35.8762 26.043 35.5906 24.5423C35.1481 25.6897 33.6575 27.0309 31.8059 27.0309L31.8028 27.0278ZM35.3804 19.4682C35.1199 19.4369 34.8061 19.4056 34.5456 19.4056C31.8812 19.4056 30.0297 20.1403 30.0297 22.4351C30.0297 24.1578 31.0496 25.177 32.5622 25.177C33.8677 25.177 34.8092 24.5392 35.4086 23.6138C35.3835 22.976 35.3835 20.9032 35.3835 19.4682H35.3804Z" fill="#1D1C1C"/>
<path d="M42.8211 22.2412C42.8211 24.8236 44.3086 25.7803 45.9029 25.7803C47.3119 25.7803 48.6457 24.9518 48.6457 23.101C48.6457 21.6972 47.7042 20.9 46.3736 20.3279L44.7794 19.6588C42.7176 18.7991 41.6474 17.5548 41.6474 15.3538C41.6474 12.4838 43.7626 10.858 46.27 10.858C49.1415 10.858 50.0296 12.3243 50.0296 13.5374C50.0296 14.1439 49.7409 14.716 48.5923 15.1318L48.4103 15.0349C48.4103 12.8027 47.3653 12.1023 46.0064 12.1023C44.726 12.1023 43.499 12.8027 43.499 14.5253C43.499 15.7383 44.1266 16.5981 45.5608 17.1734L47.1268 17.8111C49.7378 18.896 50.5474 20.2997 50.5474 22.2131C50.5474 25.1457 48.6143 27.0278 45.4039 27.0278C42.1935 27.0278 41.0951 25.1769 41.0951 23.8701C41.0951 23.0103 41.5658 22.4663 42.636 22.1162L42.818 22.2444L42.8211 22.2412Z" fill="#1D1C1C"/>
<path d="M58.3333 27.0278C54.4953 27.0278 52.5621 23.967 52.5621 18.896C52.5621 13.825 54.8876 10.858 58.462 10.858C62.6139 10.858 64.2081 14.1095 64.2081 18.7991C64.2081 23.4887 62.118 27.0278 58.3333 27.0278ZM58.4118 12.1336C56.0864 12.1336 54.966 14.4628 54.966 18.5114C54.966 23.4543 55.9326 25.7834 58.4118 25.7834C60.891 25.7834 61.8324 23.1041 61.8324 18.7991C61.8324 13.7937 60.6054 12.1336 58.4118 12.1336Z" fill="#1D1C1C"/>
<path d="M69.2732 26.5494C68.2815 26.5494 67.4185 26.5494 66.4519 26.6463V26.071C67.8892 25.9741 68.2533 25.2113 68.2533 23.201V16.8857C68.2533 13.8249 67.861 12.8339 66.2166 12.8339V12.515C66.8944 11.749 67.8359 11.0487 68.6173 11.0487C69.3987 11.0487 70.2617 11.3676 70.3151 13.7593C71.0463 12.4212 72.6656 10.9518 74.9377 10.9518C76.2683 10.9518 77.2882 11.5896 77.8092 12.8964C78.0445 13.5029 78.2265 14.5534 78.2265 15.9571V21.7941C78.2265 22.7821 78.2799 23.6762 78.4086 24.2171C78.5906 24.983 79.2433 25.5552 80.3919 25.5552V25.8741C79.871 26.4149 79.0613 26.8933 78.4086 26.8933C76.9713 26.8933 76.4754 26.0335 76.2683 25.2019C76.1114 24.5954 76.0863 23.8294 76.0863 21.9161V16.845C76.0863 15.6977 75.9545 14.7722 75.7473 14.2314C75.4335 13.3716 74.6772 12.9558 73.9178 12.9558C72.5589 12.9558 71.3852 13.4341 70.3935 14.5503V23.3823C70.3935 25.0737 70.8109 25.996 72.3518 26.0617V26.6369C71.3068 26.5744 70.29 26.54 69.27 26.54L69.2732 26.5494Z" fill="#1D1C1C"/>
<path d="M85.9843 27.0278C83.5051 27.0278 81.9109 25.2426 81.9109 22.6915C81.9109 19.3744 84.3399 18.1957 88.1779 18.1957C88.5169 18.1957 89.223 18.2583 89.5619 18.3239C89.587 17.8456 89.587 17.4954 89.587 17.0483C89.587 15.9635 89.5085 14.8474 89.2198 14.2096C88.7773 13.2529 87.8107 12.8371 86.7406 12.8371C84.911 12.8371 83.7624 13.8907 83.1881 14.9099L82.7959 14.7192C83.0563 13.2842 84.1265 10.8612 87.34 10.8612C89.8977 10.8612 91.7806 12.0086 91.7806 15.6759C91.7806 16.8545 91.7021 19.9496 91.7021 22.3726C91.7021 24.7956 92.2513 25.499 93.8173 25.5303V25.8179C93.3466 26.3931 92.6154 26.9027 91.7555 26.9027C90.5818 26.9027 90.0577 26.043 89.7721 24.5423C89.3297 25.6897 87.839 27.0309 85.9874 27.0309L85.9843 27.0278ZM89.5619 19.4682C89.3014 19.4369 88.9876 19.4056 88.7271 19.4056C86.0628 19.4056 84.2112 20.1403 84.2112 22.4351C84.2112 24.1578 85.2311 25.177 86.7438 25.177C88.0493 25.177 88.9907 24.5392 89.5901 23.6138C89.565 22.976 89.565 20.9032 89.565 19.4682H89.5619Z" fill="#1D1C1C"/>
<path d="M97.8908 26.5495C96.8708 26.5495 96.0643 26.5495 95.0977 26.6464V26.0711C96.4566 25.9742 96.8489 25.177 96.8489 23.2011V7.70041C96.8489 5.4369 96.5602 4.67094 94.8906 4.67094V4.32078C95.6752 3.49229 96.7955 2.72632 97.6836 2.72632C98.6502 2.72632 98.9891 3.30158 98.9891 5.97777V23.3887C98.9891 25.1113 99.3814 26.0023 101.001 26.068V26.6432C99.9808 26.5807 98.8605 26.5463 97.8939 26.5463L97.8908 26.5495Z" fill="#1D1C1C"/>
<path d="M140.608 26.5807C139.642 26.5807 138.415 26.612 137.448 26.6433V26.068C139.121 26.0055 139.485 24.9831 139.485 23.198V8.11623C139.485 6.36232 139.118 5.91525 137.448 5.85272V5.27747C138.885 5.37438 140.815 5.40565 142.096 5.40565C143.583 5.40565 144.785 5.37438 148.805 5.30873C148.859 6.84066 148.962 8.52892 149.066 10.0296H148.57C147.97 6.93758 147.289 6.71248 143.947 6.71248H141.807V15.2913H142.981C145.959 15.2913 146.426 14.7161 146.533 12.9621H147.107C147.054 13.9501 147.054 15.0662 147.054 16.0229C147.054 16.9796 147.054 17.9362 147.107 18.9242H146.533C146.43 17.2672 146.037 16.595 143.009 16.595H141.807V23.0354C141.807 25.1707 142.224 26.0023 144.104 26.0649V26.6401C143.295 26.6089 141.572 26.5776 140.605 26.5776L140.608 26.5807Z" fill="#1D1C1C"/>
<path d="M153.299 26.5495C152.279 26.5495 151.473 26.5495 150.506 26.6464V26.0711C151.865 25.9742 152.257 25.177 152.257 23.2011V7.70041C152.257 5.4369 151.969 4.67094 150.299 4.67094V4.32078C151.084 3.49229 152.204 2.72632 153.092 2.72632C154.059 2.72632 154.398 3.30158 154.398 5.97777V23.3887C154.398 25.1113 154.79 26.0023 156.409 26.068V26.6432C155.389 26.5807 154.269 26.5463 153.302 26.5463L153.299 26.5495Z" fill="#1D1C1C"/>
<path d="M162.045 27.0278C159.566 27.0278 157.972 25.2426 157.972 22.6915C157.972 19.3744 160.401 18.1957 164.239 18.1957C164.578 18.1957 165.284 18.2583 165.623 18.3239C165.648 17.8456 165.648 17.4954 165.648 17.0483C165.648 15.9635 165.57 14.8474 165.281 14.2096C164.838 13.2529 163.872 12.8371 162.802 12.8371C160.972 12.8371 159.824 13.8907 159.249 14.9099L158.857 14.7192C159.118 13.2842 160.188 10.8612 163.401 10.8612C165.959 10.8612 167.842 12.0086 167.842 15.6759C167.842 16.8545 167.763 19.9496 167.763 22.3726C167.763 24.7956 168.313 25.499 169.878 25.5303V25.8179C169.408 26.3931 168.677 26.9027 167.817 26.9027C166.643 26.9027 166.119 26.043 165.833 24.5423C165.391 25.6897 163.9 27.0309 162.049 27.0309L162.045 27.0278ZM165.623 19.4682C165.363 19.4369 165.049 19.4056 164.788 19.4056C162.124 19.4056 160.272 20.1403 160.272 22.4351C160.272 24.1578 161.292 25.177 162.805 25.177C164.11 25.177 165.052 24.5392 165.651 23.6138C165.626 22.976 165.626 20.9032 165.626 19.4682H165.623Z" fill="#1D1C1C"/>
<path d="M175.621 26.7401C174.473 22.5945 172.358 16.1197 171.758 14.7816C171.184 13.5373 170.713 12.8057 169.982 12.7713V12.4525C170.581 11.7521 171.262 11.0487 171.94 11.0487C172.828 11.0487 173.114 11.7178 173.428 12.4212C173.899 13.5061 174.369 15.1005 174.655 16.0885C175.333 18.352 176.142 21.0626 176.848 23.6793C177.344 22.3725 178.443 19.6307 179.381 16.8232C179.852 15.4194 180.059 14.2095 180.059 13.6655C180.059 13.0277 179.824 12.5494 179.431 12.2617V11.9741C179.952 11.4958 180.605 11.0487 181.233 11.0487C181.754 11.0487 182.278 11.3363 182.278 12.3243C182.278 13.4717 181.415 15.7039 180.448 18.0956C178.098 23.9326 177.42 25.5896 177.027 26.737H175.618L175.621 26.7401Z" fill="#1D1C1C"/>
<path d="M189.75 27.0278C185.912 27.0278 183.979 23.967 183.979 18.896C183.979 13.825 186.304 10.858 189.878 10.858C194.03 10.858 195.624 14.1095 195.624 18.7991C195.624 23.4887 193.534 27.0278 189.75 27.0278ZM189.828 12.1336C187.503 12.1336 186.382 14.4628 186.382 18.5114C186.382 23.4543 187.349 25.7834 189.828 25.7834C192.307 25.7834 193.249 23.1041 193.249 18.7991C193.249 13.7937 192.022 12.1336 189.828 12.1336Z" fill="#1D1C1C"/>
<path d="M200.821 26.5494C199.776 26.5494 198.838 26.5807 198.079 26.6463V26.0711C199.409 25.9742 199.673 25.0175 199.673 23.1385V16.8889C199.673 13.8906 199.306 12.837 197.661 12.837V12.5182C198.392 11.7209 199.177 11.0519 200.115 11.0519C200.95 11.0519 201.71 11.5615 201.76 13.9532C202.202 12.7089 203.483 10.955 205.049 10.955C205.883 10.955 206.486 11.5615 206.486 12.4869C206.486 13.3154 206.043 14.1439 205.362 14.6879L205.231 14.6253C205.049 13.9563 204.656 13.4467 203.979 13.4467C203.301 13.4467 202.306 13.9563 201.81 14.9442V23.4261C201.81 24.9581 202.149 26.0086 203.872 26.0742V26.6495C202.852 26.5869 201.782 26.5525 200.815 26.5525L200.821 26.5494Z" fill="#1D1C1C"/>
<path d="M209.436 22.2412C209.436 24.8236 210.923 25.7803 212.518 25.7803C213.927 25.7803 215.26 24.9518 215.26 23.101C215.26 21.6972 214.319 20.9 212.988 20.3279L211.394 19.6588C209.332 18.7991 208.262 17.5548 208.262 15.3538C208.262 12.4838 210.377 10.858 212.885 10.858C215.756 10.858 216.644 12.3243 216.644 13.5374C216.644 14.1439 216.356 14.716 215.207 15.1318L215.025 15.0349C215.025 12.8027 213.98 12.1023 212.621 12.1023C211.341 12.1023 210.114 12.8027 210.114 14.5253C210.114 15.7383 210.741 16.5981 212.176 17.1734L213.742 17.8111C216.353 18.896 217.162 20.2997 217.162 22.2131C217.162 25.1457 215.229 27.0278 212.019 27.0278C208.808 27.0278 207.71 25.1769 207.71 23.8701C207.71 23.0103 208.181 22.4663 209.251 22.1162L209.433 22.2444L209.436 22.2412Z" fill="#1D1C1C"/>
<g opacity="0.9">
<path fill-rule="evenodd" clip-rule="evenodd" d="M126.179 20.0121L127.286 21.1314C127.258 21.1345 127.224 21.1345 127.192 21.1345C126.747 21.1345 126.307 21.0407 125.903 20.8719C125.56 20.7218 125.243 20.5248 124.97 20.2747L125.243 20.009C125.507 19.7495 125.924 19.7526 126.179 20.0121Z" fill="#D15823"/>
<path fill-rule="evenodd" clip-rule="evenodd" d="M129.675 9.15411C130.302 9.78877 130.657 10.6485 130.644 11.5395C130.641 12.4306 130.277 13.2872 129.64 13.9125L128.928 14.6597L129.634 15.4225C130.102 15.8946 130.415 16.498 130.538 17.1514C130.654 17.8048 130.585 18.4801 130.324 19.0867C130.061 19.6994 129.624 20.2153 129.066 20.5873C128.532 20.9344 127.917 21.1251 127.283 21.1313L126.176 20.0121C125.921 19.7526 125.504 19.7495 125.24 20.009L124.967 20.2747C124.911 20.2341 124.858 20.1809 124.81 20.1309L119.579 14.9161C119.535 14.8723 119.504 14.8223 119.479 14.766C119.46 14.7035 119.447 14.6441 119.444 14.5815C119.447 14.519 119.463 14.4596 119.482 14.4065C119.507 14.3502 119.545 14.297 119.588 14.2533L124.901 9.11659C125.539 8.49131 126.402 8.14741 127.296 8.15053C128.19 8.16304 129.047 8.51945 129.675 9.15411Z" fill="#D15823"/>
</g>
<path opacity="0.9" fill-rule="evenodd" clip-rule="evenodd" d="M118.879 15.6008L124.035 20.8937C124.085 20.9438 124.136 20.9969 124.176 21.0532C124.716 21.6628 125.008 22.4601 125.005 23.2792C125.005 23.3761 124.999 23.4636 124.989 23.5606C124.917 24.3484 124.569 25.0894 123.994 25.649C123.361 26.2774 122.494 26.6275 121.603 26.6182C120.706 26.6119 119.852 26.2493 119.221 25.6177L118.471 24.908L117.702 25.6052C117.228 26.0711 116.623 26.3837 115.967 26.5056C115.317 26.6275 114.639 26.5556 114.024 26.293C113.409 26.0304 112.891 25.5958 112.521 25.0425C112.157 24.486 111.962 23.8357 111.969 23.1698C111.972 22.7289 112.066 22.2912 112.232 21.8848C112.408 21.4784 112.659 21.1095 112.976 20.7999L118.217 15.5914C118.261 15.5476 118.311 15.5163 118.368 15.4913C118.424 15.4663 118.487 15.4569 118.546 15.4507C118.609 15.4538 118.669 15.4694 118.725 15.4913C118.782 15.5163 118.832 15.5476 118.876 15.5945L118.879 15.6008Z" fill="#7DA2C5"/>
<g opacity="0.9">
<path fill-rule="evenodd" clip-rule="evenodd" d="M113.152 7.15949L112.01 6.07776C112.006 6.1059 112.01 6.14029 112.01 6.17155C112.016 6.6155 112.119 7.05319 112.295 7.45025C112.452 7.7879 112.656 8.10054 112.91 8.36628L113.174 8.09116C113.428 7.82541 113.419 7.4096 113.155 7.15949H113.152Z" fill="#F59D38"/>
<path fill-rule="evenodd" clip-rule="evenodd" d="M123.989 3.48911C123.339 2.87321 122.473 2.53869 121.578 2.56683C120.684 2.58559 119.831 2.96075 119.215 3.60792L118.478 4.33012L117.7 3.64231C117.216 3.18585 116.604 2.88572 115.949 2.77004C115.293 2.66375 114.615 2.74816 114.009 3.0139C113.4 3.2859 112.889 3.72985 112.525 4.2926C112.186 4.83034 112.007 5.44624 112.01 6.07777L113.152 7.1595C113.416 7.40962 113.425 7.82543 113.171 8.09117L112.908 8.36629C112.948 8.42257 113.005 8.47259 113.055 8.52261L118.381 13.6437C118.428 13.6874 118.478 13.7187 118.534 13.7406C118.597 13.7593 118.657 13.7687 118.72 13.7718C118.782 13.7656 118.842 13.7531 118.895 13.7312C118.952 13.7062 119.005 13.6687 119.049 13.6218L124.111 8.23811C124.729 7.59095 125.056 6.72806 125.037 5.83704C125.009 4.94602 124.635 4.10189 123.986 3.48599L123.989 3.48911Z" fill="#F59D38"/>
</g>
<path opacity="0.9" fill-rule="evenodd" clip-rule="evenodd" d="M117.31 14.3252L112.145 9.1666C112.097 9.11658 112.044 9.06656 111.988 9.02592C111.391 8.48505 110.607 8.18492 109.794 8.17554C109.697 8.17554 109.612 8.17554 109.515 8.18492C108.73 8.24432 107.993 8.57572 107.428 9.12909C106.794 9.74499 106.436 10.5891 106.427 11.4676C106.42 12.3524 106.762 13.1965 107.381 13.8281L108.074 14.5784L107.368 15.3256C106.901 15.7852 106.58 16.3761 106.446 17.0201C106.314 17.6579 106.373 18.3269 106.624 18.9366C106.872 19.5462 107.299 20.0652 107.839 20.4341C108.385 20.7999 109.025 21.0031 109.687 21.0094C110.124 21.0125 110.56 20.9281 110.965 20.7718C111.369 20.6061 111.74 20.3622 112.054 20.0558L117.304 14.9817C117.348 14.9379 117.382 14.891 117.407 14.8348C117.432 14.7785 117.445 14.7191 117.448 14.6566C117.445 14.5972 117.432 14.5346 117.41 14.4784C117.385 14.4221 117.354 14.3721 117.31 14.3283V14.3252Z" fill="#A7D7B8"/>
</svg>
