<?xml version="1.0" encoding="UTF-8"?>
<svg id="Layer_2" xmlns="http://www.w3.org/2000/svg" viewBox="0 0 199.58 198.41">
    <defs>
        <style>.cls-1{fill:#a7d7b8;}.cls-1,.cls-2,.cls-3,.cls-4{fill-rule:evenodd;opacity:.9;}.cls-2{fill:#7da2c5;}.cls-3{fill:#f59d38;}.cls-4{fill:#d15823;}</style>
    </defs>
    <g id="Layer_1-2">
        //winter
        <path class="cls-2 winter" d="M103.23,107.06l42.58,43.89c.4.41.84.85,1.17,1.33,4.45,5.06,6.86,11.67,6.84,18.45,0,.81-.05,1.52-.12,2.33-.59,6.54-3.48,12.66-8.21,17.32-5.24,5.22-12.39,8.1-19.74,8.04-7.43-.06-14.46-3.05-19.68-8.29l-6.2-5.89-6.36,5.79c-3.91,3.85-8.93,6.44-14.34,7.48-5.38,1-10.97.42-16.05-1.75-5.08-2.17-9.37-5.78-12.4-10.36-3-4.61-4.61-9.99-4.57-15.53.03-3.64.8-7.28,2.18-10.65,1.44-3.36,3.53-6.42,6.15-9l43.28-43.19c.37-.37.78-.63,1.26-.83.47-.2.98-.3,1.49-.33.51.04,1.01.14,1.48.35.47.21.87.48,1.24.85Z"/>
        // spring
        <path class="cls-1 spring" d="M90.29,96.44l-42.68-42.77c-.4-.4-.83-.84-1.29-1.18-4.93-4.48-11.42-6.96-18.12-7.05-.8,0-1.5.02-2.3.08-6.47.48-12.57,3.23-17.24,7.83C3.41,58.45.45,65.46.39,72.73c-.06,7.34,2.79,14.33,7.88,19.58l5.72,6.22-5.82,6.19c-3.87,3.8-6.51,8.72-7.62,14.05-1.08,5.29-.59,10.84,1.47,15.89,2.06,5.05,5.56,9.35,10.04,12.42,4.51,3.04,9.8,4.72,15.27,4.76,3.6.03,7.21-.68,10.56-1.98,3.35-1.37,6.4-3.38,8.99-5.93l43.37-42.07c.37-.36.64-.76.84-1.23.2-.47.31-.96.35-1.46-.03-.5-.13-1-.32-1.47-.2-.47-.46-.87-.82-1.24Z"/>
        // Herbst
        <path class="cls-4 autumn" d="M109.29,96.44l42.68-42.77c.4-.4.83-.84,1.29-1.18,4.93-4.48,11.42-6.96,18.12-7.05.8,0,1.5.02,2.3.08,6.47.48,12.57,3.23,17.24,7.83,5.24,5.09,8.2,12.11,8.26,19.38.06,7.34-2.79,14.33-7.88,19.58l-5.72,6.22,5.82,6.19c3.87,3.8,6.51,8.72,7.62,14.05,1.08,5.29.59,10.84-1.47,15.89-2.06,5.05-5.56,9.35-10.04,12.42-4.51,3.04-9.8,4.72-15.27,4.76-3.6.03-7.21-.68-10.56-1.98-3.35-1.37-6.4-3.38-8.99-5.93l-43.37-42.07c-.37-.36-.64-.76-.84-1.23-.2-.47-.31-.96-.35-1.46.03-.5.13-1,.32-1.47.2-.47.46-.87.82-1.24Z"/>
        //Sommer
        <path class="cls-3 summer" d="M103.23,91.35l42.58-43.89c.4-.41.84-.85,1.17-1.33,4.45-5.06,6.86-11.67,6.84-18.45,0-.81-.05-1.52-.12-2.33-.59-6.54-3.48-12.66-8.21-17.32C140.25,2.82,133.1-.06,125.75,0c-7.43.06-14.46,3.05-19.68,8.29l-6.2,5.89-6.36-5.79c-3.91-3.85-8.93-6.44-14.34-7.48-5.38-1-10.97-.42-16.05,1.75-5.08,2.17-9.37,5.78-12.4,10.36-3,4.61-4.61,9.99-4.57,15.53.03,3.64.8,7.28,2.18,10.65,1.44,3.36,3.53,6.42,6.15,9l43.28,43.19c.37.37.78.63,1.26.83.47.2.98.3,1.49.33.51-.04,1.01-.14,1.48-.35.47-.21.87-.48,1.24-.85Z"/>
    </g>
</svg>