<?xml version="1.0" encoding="UTF-8"?><svg id="Layer_2" xmlns="http://www.w3.org/2000/svg" viewBox="0 0 601.89 111.95"><defs><style>.cls-1{fill:#303030;}</style></defs><g id="Layer_2-2"><path class="cls-1" d="M8.57,67.17c0,11.12,6.66,15,12.9,15,6.57,0,12.4-3.88,12.4-12.75,0-6.02-3.99-10-10.57-13.46l-6.91-3.67c-7.9-4.08-11.4-10.3-11.4-18.56,0-11.73,8.49-18.06,18.64-18.06,11.57,0,15.56,6.22,15.56,10.92,0,2.14-1.08,4.49-5.16,5.81l-.67-.41c0-9.59-5.08-12.24-10.23-12.24-6.16,0-11.57,4.28-11.57,11.32,0,5.92,2.83,9.69,9.57,13.26l6.41,3.47c9.99,5.41,13.23,10.92,13.23,18.87,0,12.34-8.99,19.79-20.05,19.79-11.9,0-18.31-6.63-18.31-13.46,0-2.75,1-5.41,5.66-6.32l.5.51Z"/><path class="cls-1" d="M68.06,80.33c4.91,0,9.32-2.24,12.23-6.32h.42c.33.41.67,1.22.67,2.04,0,3.16-5.82,10.4-15.39,10.4-12.31,0-18.72-9.89-18.72-26.22s7.9-25.5,18.22-25.5,15.98,6.94,15.98,21.42c0,2.35-1.5,2.96-3,2.96h-23.88c.08,15.5,5.99,21.22,13.48,21.22ZM72.39,55.03c1.58-.1,1.91-1.12,1.91-2.04,0-10.71-3.58-14.18-9.07-14.18-3.66,0-9.98,2.55-10.57,16.63,8.07-.1,14.56-.2,17.72-.41Z"/><path class="cls-1" d="M101.34,86.45c-7.9,0-12.98-5.71-12.98-13.87,0-10.61,7.74-14.38,19.97-14.38,1.08,0,3.33.2,4.41.41.08-1.53.08-2.65.08-4.08,0-3.47-.25-7.04-1.17-9.08-1.41-3.06-4.49-4.39-7.9-4.39-5.83,0-9.49,3.37-11.32,6.63l-1.25-.61c.83-4.59,4.24-12.34,14.48-12.34,8.15,0,14.15,3.67,14.15,15.4,0,3.77-.25,13.67-.25,21.42s1.75,10,6.74,10.1v.92c-1.5,1.84-3.83,3.47-6.57,3.47-3.74,0-5.41-2.75-6.32-7.55-1.41,3.67-6.16,7.96-12.06,7.96ZM112.74,62.27c-.83-.1-1.83-.2-2.66-.2-8.49,0-14.39,2.35-14.39,9.69,0,5.51,3.25,8.77,8.07,8.77,4.16,0,7.16-2.04,9.07-5-.08-2.04-.08-8.67-.08-13.26Z"/><path class="cls-1" d="M136.45,71.14c0,8.26,4.74,11.32,9.82,11.32,4.49,0,8.74-2.65,8.74-8.57,0-4.49-3-7.04-7.24-8.87l-5.08-2.14c-6.57-2.75-9.98-6.73-9.98-13.77,0-9.18,6.74-14.38,14.73-14.38,9.15,0,11.98,4.69,11.98,8.57,0,1.94-.92,3.77-4.58,5.1l-.58-.31c0-7.14-3.33-9.38-7.66-9.38-4.08,0-7.99,2.24-7.99,7.75,0,3.88,2,6.63,6.57,8.47l4.99,2.04c8.32,3.47,10.9,7.96,10.9,14.08,0,9.38-6.16,15.4-16.39,15.4s-13.73-5.92-13.73-10.1c0-2.75,1.5-4.49,4.91-5.61l.58.41Z"/><path class="cls-1" d="M185.88,86.45c-12.23,0-18.39-9.79-18.39-26.01s7.41-25.71,18.8-25.71c13.23,0,18.31,10.4,18.31,25.4s-6.66,26.32-18.72,26.32ZM186.13,38.81c-7.41,0-10.98,7.45-10.98,20.4,0,15.81,3.08,23.26,10.98,23.26s10.9-8.57,10.9-22.34c0-16.01-3.91-21.32-10.9-21.32Z"/><path class="cls-1" d="M220.74,84.92c-3.16,0-5.91,0-8.99.31v-1.84c4.58-.31,5.74-2.75,5.74-9.18v-20.2c0-9.79-1.25-12.96-6.49-12.96v-1.02c2.16-2.45,5.16-4.69,7.65-4.69s5.24,1.02,5.41,8.67c2.33-4.28,7.49-8.98,14.73-8.98,4.24,0,7.49,2.04,9.15,6.22.75,1.94,1.33,5.3,1.33,9.79v18.67c0,3.16.17,6.02.58,7.75.58,2.45,2.66,4.28,6.32,4.28v1.02c-1.66,1.73-4.24,3.26-6.32,3.26-4.58,0-6.16-2.75-6.82-5.41-.5-1.94-.58-4.39-.58-10.51v-16.22c0-3.67-.42-6.63-1.08-8.36-1-2.75-3.41-4.08-5.83-4.08-4.33,0-8.07,1.53-11.23,5.1v28.25c0,5.41,1.33,8.36,6.24,8.57v1.84c-3.33-.2-6.57-.31-9.82-.31Z"/><path class="cls-1" d="M273.99,86.45c-7.9,0-12.98-5.71-12.98-13.87,0-10.61,7.74-14.38,19.97-14.38,1.08,0,3.33.2,4.41.41.08-1.53.08-2.65.08-4.08,0-3.47-.25-7.04-1.17-9.08-1.41-3.06-4.49-4.39-7.9-4.39-5.83,0-9.49,3.37-11.32,6.63l-1.25-.61c.83-4.59,4.24-12.34,14.48-12.34,8.15,0,14.15,3.67,14.15,15.4,0,3.77-.25,13.67-.25,21.42s1.75,10,6.74,10.1v.92c-1.5,1.84-3.83,3.47-6.57,3.47-3.74,0-5.41-2.75-6.32-7.55-1.41,3.67-6.16,7.96-12.06,7.96ZM285.39,62.27c-.83-.1-1.83-.2-2.66-.2-8.49,0-14.39,2.35-14.39,9.69,0,5.51,3.25,8.77,8.07,8.77,4.16,0,7.16-2.04,9.07-5-.08-2.04-.08-8.67-.08-13.26Z"/><path class="cls-1" d="M311.93,84.92c-3.25,0-5.82,0-8.9.31v-1.84c4.33-.31,5.58-2.86,5.58-9.18V24.63c0-7.24-.92-9.69-6.24-9.69v-1.12c2.5-2.65,6.07-5.1,8.9-5.1,3.08,0,4.16,1.84,4.16,10.4v55.69c0,5.51,1.25,8.36,6.41,8.57v1.84c-3.25-.2-6.82-.31-9.9-.31Z"/><path class="cls-1" d="M355.28,85.02c-3.08,0-6.99.1-10.07.2v-1.84c5.33-.2,6.49-3.47,6.49-9.18V25.96c0-5.61-1.17-7.04-6.49-7.24v-1.84c4.58.31,10.73.41,14.81.41,4.74,0,8.57-.1,21.38-.31.17,4.9.5,10.3.83,15.1h-1.58c-1.91-9.89-4.08-10.61-14.73-10.61h-6.82v27.44h3.74c9.49,0,10.98-1.84,11.32-7.45h1.83c-.17,3.16-.17,6.73-.17,9.79s0,6.12.17,9.28h-1.83c-.33-5.3-1.58-7.45-11.23-7.45h-3.83v20.6c0,6.83,1.33,9.49,7.32,9.69v1.84c-2.58-.1-8.07-.2-11.15-.2Z"/><path class="cls-1" d="M395.72,84.92c-3.25,0-5.82,0-8.9.31v-1.84c4.33-.31,5.58-2.86,5.58-9.18V24.63c0-7.24-.92-9.69-6.24-9.69v-1.12c2.5-2.65,6.07-5.1,8.9-5.1,3.08,0,4.16,1.84,4.16,10.4v55.69c0,5.51,1.25,8.36,6.41,8.57v1.84c-3.25-.2-6.82-.31-9.9-.31Z"/><path class="cls-1" d="M423.59,86.45c-7.9,0-12.98-5.71-12.98-13.87,0-10.61,7.74-14.38,19.97-14.38,1.08,0,3.33.2,4.41.41.08-1.53.08-2.65.08-4.08,0-3.47-.25-7.04-1.17-9.08-1.41-3.06-4.49-4.39-7.9-4.39-5.82,0-9.49,3.37-11.32,6.63l-1.25-.61c.83-4.59,4.24-12.34,14.48-12.34,8.15,0,14.15,3.67,14.15,15.4,0,3.77-.25,13.67-.25,21.42s1.75,10,6.74,10.1v.92c-1.5,1.84-3.83,3.47-6.57,3.47-3.74,0-5.41-2.75-6.32-7.55-1.41,3.67-6.16,7.96-12.06,7.96ZM434.99,62.27c-.83-.1-1.83-.2-2.66-.2-8.49,0-14.39,2.35-14.39,9.69,0,5.51,3.25,8.77,8.07,8.77,4.16,0,7.16-2.04,9.07-5-.08-2.04-.08-8.67-.08-13.26Z"/><path class="cls-1" d="M466.86,85.53c-3.66-13.26-10.4-33.97-12.31-38.25-1.83-3.98-3.33-6.32-5.66-6.43v-1.02c1.91-2.24,4.08-4.49,6.24-4.49,2.83,0,3.74,2.14,4.74,4.39,1.5,3.47,3,8.57,3.91,11.73,2.16,7.24,4.74,15.91,6.99,24.28,1.58-4.18,5.08-12.95,8.07-21.93,1.5-4.49,2.16-8.36,2.16-10.1,0-2.04-.75-3.57-2-4.49v-.92c1.66-1.53,3.74-2.96,5.74-2.96,1.66,0,3.33.92,3.33,4.08,0,3.67-2.75,10.81-5.83,18.46-7.49,18.67-9.65,23.97-10.9,27.64h-4.49Z"/><path class="cls-1" d="M511.87,86.45c-12.23,0-18.39-9.79-18.39-26.01s7.41-25.71,18.8-25.71c13.23,0,18.31,10.4,18.31,25.4s-6.66,26.32-18.72,26.32ZM512.12,38.81c-7.41,0-10.98,7.45-10.98,20.4,0,15.81,3.08,23.26,10.98,23.26s10.9-8.57,10.9-22.34c0-16.01-3.91-21.32-10.9-21.32Z"/><path class="cls-1" d="M547.15,84.92c-3.33,0-6.32.1-8.74.31v-1.84c4.24-.31,5.08-3.37,5.08-9.38v-19.99c0-9.59-1.16-12.96-6.41-12.96v-1.02c2.33-2.55,4.83-4.69,7.82-4.69,2.66,0,5.08,1.63,5.24,9.28,1.41-3.98,5.49-9.59,10.48-9.59,2.66,0,4.58,1.94,4.58,4.9,0,2.65-1.41,5.3-3.58,7.04l-.42-.2c-.58-2.14-1.83-3.77-3.99-3.77s-5.33,1.63-6.91,4.79v27.13c0,4.9,1.08,8.26,6.57,8.47v1.84c-3.25-.2-6.66-.31-9.74-.31Z"/><path class="cls-1" d="M574.6,71.14c0,8.26,4.74,11.32,9.82,11.32,4.49,0,8.74-2.65,8.74-8.57,0-4.49-3-7.04-7.24-8.87l-5.08-2.14c-6.57-2.75-9.98-6.73-9.98-13.77,0-9.18,6.74-14.38,14.73-14.38,9.15,0,11.98,4.69,11.98,8.57,0,1.94-.92,3.77-4.58,5.1l-.58-.31c0-7.14-3.33-9.38-7.66-9.38-4.08,0-7.99,2.24-7.99,7.75,0,3.88,2,6.63,6.57,8.47l4.99,2.04c8.32,3.47,10.9,7.96,10.9,14.08,0,9.38-6.16,15.4-16.39,15.4s-13.73-5.92-13.73-10.1c0-2.75,1.5-4.49,4.91-5.61l.58.41Z"/></g></svg>