<svg aria-roledescription="er" role="graphics-document document" viewBox="0 0 550.0487060546875 642" style="max-width: 550.049px; background-color: rgb(255, 255, 255);" xmlns:xlink="http://www.w3.org/1999/xlink" xmlns="http://www.w3.org/2000/svg" width="100%" id="mermaid-1728662573067"><style>#mermaid-1728662573067{font-family:"trebuchet ms",verdana,arial,sans-serif;font-size:16px;fill:#333;}#mermaid-1728662573067 .error-icon{fill:#552222;}#mermaid-1728662573067 .error-text{fill:#552222;stroke:#552222;}#mermaid-1728662573067 .edge-thickness-normal{stroke-width:2px;}#mermaid-1728662573067 .edge-thickness-thick{stroke-width:3.5px;}#mermaid-1728662573067 .edge-pattern-solid{stroke-dasharray:0;}#mermaid-1728662573067 .edge-pattern-dashed{stroke-dasharray:3;}#mermaid-1728662573067 .edge-pattern-dotted{stroke-dasharray:2;}#mermaid-1728662573067 .marker{fill:#333333;stroke:#333333;}#mermaid-1728662573067 .marker.cross{stroke:#333333;}#mermaid-1728662573067 svg{font-family:"trebuchet ms",verdana,arial,sans-serif;font-size:16px;}#mermaid-1728662573067 .entityBox{fill:#ECECFF;stroke:#9370DB;}#mermaid-1728662573067 .attributeBoxOdd{fill:#ffffff;stroke:#9370DB;}#mermaid-1728662573067 .attributeBoxEven{fill:#f2f2f2;stroke:#9370DB;}#mermaid-1728662573067 .relationshipLabelBox{fill:hsl(80, 100%, 96.2745098039%);opacity:0.7;background-color:hsl(80, 100%, 96.2745098039%);}#mermaid-1728662573067 .relationshipLabelBox rect{opacity:0.5;}#mermaid-1728662573067 .relationshipLine{stroke:#333333;}#mermaid-1728662573067 .entityTitleText{text-anchor:middle;font-size:18px;fill:#333;}#mermaid-1728662573067 #MD_PARENT_START{fill:#f5f5f5!important;stroke:#333333!important;stroke-width:1;}#mermaid-1728662573067 #MD_PARENT_END{fill:#f5f5f5!important;stroke:#333333!important;stroke-width:1;}#mermaid-1728662573067 :root{--mermaid-font-family:"trebuchet ms",verdana,arial,sans-serif;}</style><g/><defs><marker orient="auto" markerHeight="240" markerWidth="190" refY="7" refX="0" id="MD_PARENT_START"><path d="M 18,7 L9,13 L1,7 L9,1 Z"/></marker></defs><defs><marker orient="auto" markerHeight="28" markerWidth="20" refY="7" refX="19" id="MD_PARENT_END"><path d="M 18,7 L9,13 L1,7 L9,1 Z"/></marker></defs><defs><marker orient="auto" markerHeight="18" markerWidth="18" refY="9" refX="0" id="ONLY_ONE_START"><path d="M9,0 L9,18 M15,0 L15,18" fill="none" stroke="gray"/></marker></defs><defs><marker orient="auto" markerHeight="18" markerWidth="18" refY="9" refX="18" id="ONLY_ONE_END"><path d="M3,0 L3,18 M9,0 L9,18" fill="none" stroke="gray"/></marker></defs><defs><marker orient="auto" markerHeight="18" markerWidth="30" refY="9" refX="0" id="ZERO_OR_ONE_START"><circle r="6" cy="9" cx="21" fill="white" stroke="gray"/><path d="M9,0 L9,18" fill="none" stroke="gray"/></marker></defs><defs><marker orient="auto" markerHeight="18" markerWidth="30" refY="9" refX="30" id="ZERO_OR_ONE_END"><circle r="6" cy="9" cx="9" fill="white" stroke="gray"/><path d="M21,0 L21,18" fill="none" stroke="gray"/></marker></defs><defs><marker orient="auto" markerHeight="36" markerWidth="45" refY="18" refX="18" id="ONE_OR_MORE_START"><path d="M0,18 Q 18,0 36,18 Q 18,36 0,18 M42,9 L42,27" fill="none" stroke="gray"/></marker></defs><defs><marker orient="auto" markerHeight="36" markerWidth="45" refY="18" refX="27" id="ONE_OR_MORE_END"><path d="M3,9 L3,27 M9,18 Q27,0 45,18 Q27,36 9,18" fill="none" stroke="gray"/></marker></defs><defs><marker orient="auto" markerHeight="36" markerWidth="57" refY="18" refX="18" id="ZERO_OR_MORE_START"><circle r="6" cy="18" cx="48" fill="white" stroke="gray"/><path d="M0,18 Q18,0 36,18 Q18,36 0,18" fill="none" stroke="gray"/></marker></defs><defs><marker orient="auto" markerHeight="36" markerWidth="57" refY="18" refX="39" id="ZERO_OR_MORE_END"><circle r="6" cy="18" cx="9" fill="white" stroke="gray"/><path d="M21,18 Q39,0 57,18 Q39,36 21,18" fill="none" stroke="gray"/></marker></defs><path style="stroke: gray; fill: none;" marker-start="url(#ONLY_ONE_START)" marker-end="url(#ZERO_OR_MORE_END)" d="M415.873046875,132L409.8427734375,140.33333333333334C403.8125,148.66666666666666,391.751953125,165.33333333333334,377.9567057291667,186.16827473958332C364.1614583333333,207.00321614583333,348.6315104166667,232.00643229166667,340.8665364583333,244.5080403645833L333.1015625,257.0096484375" class="er relationshipLine"/><path style="stroke: gray; fill: none;" marker-start="url(#ONLY_ONE_START)" marker-end="url(#ZERO_OR_MORE_END)" d="M242.96116799301242,454L240.2036425983437,462.3333333333333C237.44611720367493,470.6666666666667,231.93106641433747,487.3333333333333,218.92796655290286,504C205.92486669146828,520.6666666666666,185.4337177579365,537.3333333333334,175.18814329117063,545.6666666666666L164.94256882440476,554" class="er relationshipLine"/><path style="stroke: gray; fill: none;" marker-start="url(#ONLY_ONE_START)" marker-end="url(#ZERO_OR_MORE_END)" d="M73.140625,388L73.140625,407.3333333333333C73.140625,426.6666666666667,73.140625,465.3333333333333,78.10094246031746,493C83.06125992063492,520.6666666666666,92.98189484126983,537.3333333333334,97.9422123015873,545.6666666666666L102.90252976190476,554" class="er relationshipLine"/><path style="stroke: gray; fill: none;" marker-start="url(#ONLY_ONE_START)" marker-end="url(#ZERO_OR_MORE_END)" d="M482.81157871462267,132L486.74239632468556,140.33333333333334C490.67321393474845,148.66666666666666,498.53484915487417,165.33333333333334,502.4656667649371,200.5C506.396484375,235.66666666666666,506.396484375,289.3333333333333,506.396484375,343C506.396484375,396.6666666666667,506.396484375,450.3333333333333,501.4361669146826,485.5C496.47584945436506,520.6666666666666,486.5552145337301,537.3333333333334,481.5948970734127,545.6666666666666L476.63457961309524,554" class="er relationshipLine"/><path style="stroke: gray; fill: none;" marker-start="url(#ONLY_ONE_START)" marker-end="url(#ZERO_OR_MORE_END)" d="M333.1015625,428.9903515625L340.8665364583333,441.49195963541666C348.6315104166667,453.99356770833333,364.1614583333333,478.9967838541667,379.5360630580357,499.8317252604167C394.9106677827381,520.6666666666666,410.12992931547615,537.3333333333334,417.7395600818452,545.6666666666666L425.3491908482143,554" class="er relationshipLine"/><path style="stroke: gray; fill: none;" marker-start="url(#ONLY_ONE_START)" marker-end="url(#ZERO_OR_MORE_END)" d="M229.69140625,121L229.69140625,131.16666666666666C229.69140625,141.33333333333334,229.69140625,161.66666666666666,232.27939796842648,180.16666666666666C234.867389686853,198.66666666666666,240.043373123706,215.33333333333334,242.63136484213248,223.66666666666666L245.219356560559,232" class="er relationshipLine"/><g transform="translate(406.396484375,20 )" id="entity-USERS-1e82e395-936c-57a7-8ba9-b08f03574b93"><rect height="112" width="100" y="0" x="0" class="er entityBox"/><text style="dominant-baseline: middle; text-anchor: middle; font-size: 12px;" transform="translate(50,12)" y="0" x="0" id="text-entity-USERS-1e82e395-936c-57a7-8ba9-b08f03574b93" class="er entityLabel">USERS</text><rect height="22" width="40.7734375" y="24" x="0" class="er attributeBoxOdd"/><text style="dominant-baseline: middle; font-size: 10.2px;" transform="translate(5,35)" y="0" x="0" id="text-entity-USERS-1e82e395-936c-57a7-8ba9-b08f03574b93-attr-1-type" class="er entityLabel">int</text><rect height="22" width="59.2265625" y="24" x="40.7734375" class="er attributeBoxOdd"/><text style="dominant-baseline: middle; font-size: 10.2px;" transform="translate(45.7734375,35)" y="0" x="0" id="text-entity-USERS-1e82e395-936c-57a7-8ba9-b08f03574b93-attr-1-name" class="er entityLabel">id</text><rect height="22" width="40.7734375" y="46" x="0" class="er attributeBoxEven"/><text style="dominant-baseline: middle; font-size: 10.2px;" transform="translate(5,57)" y="0" x="0" id="text-entity-USERS-1e82e395-936c-57a7-8ba9-b08f03574b93-attr-2-type" class="er entityLabel">string</text><rect height="22" width="59.2265625" y="46" x="40.7734375" class="er attributeBoxEven"/><text style="dominant-baseline: middle; font-size: 10.2px;" transform="translate(45.7734375,57)" y="0" x="0" id="text-entity-USERS-1e82e395-936c-57a7-8ba9-b08f03574b93-attr-2-name" class="er entityLabel">username</text><rect height="22" width="40.7734375" y="68" x="0" class="er attributeBoxOdd"/><text style="dominant-baseline: middle; font-size: 10.2px;" transform="translate(5,79)" y="0" x="0" id="text-entity-USERS-1e82e395-936c-57a7-8ba9-b08f03574b93-attr-3-type" class="er entityLabel">string</text><rect height="22" width="59.2265625" y="68" x="40.7734375" class="er attributeBoxOdd"/><text style="dominant-baseline: middle; font-size: 10.2px;" transform="translate(45.7734375,79)" y="0" x="0" id="text-entity-USERS-1e82e395-936c-57a7-8ba9-b08f03574b93-attr-3-name" class="er entityLabel">email</text><rect height="22" width="40.7734375" y="90" x="0" class="er attributeBoxEven"/><text style="dominant-baseline: middle; font-size: 10.2px;" transform="translate(5,101)" y="0" x="0" id="text-entity-USERS-1e82e395-936c-57a7-8ba9-b08f03574b93-attr-4-type" class="er entityLabel">string</text><rect height="22" width="59.2265625" y="90" x="40.7734375" class="er attributeBoxEven"/><text style="dominant-baseline: middle; font-size: 10.2px;" transform="translate(45.7734375,101)" y="0" x="0" id="text-entity-USERS-1e82e395-936c-57a7-8ba9-b08f03574b93-attr-4-name" class="er entityLabel">password</text></g><g transform="translate(406.396484375,554 )" id="entity-FAVORITES-499fa7cc-2d1a-5e2c-8a73-1ac84b198240"><rect height="68" width="100" y="0" x="0" class="er entityBox"/><text style="dominant-baseline: middle; text-anchor: middle; font-size: 12px;" transform="translate(50,12)" y="0" x="0" id="text-entity-FAVORITES-499fa7cc-2d1a-5e2c-8a73-1ac84b198240" class="er entityLabel">FAVORITES</text><rect height="22" width="34.92578125" y="24" x="0" class="er attributeBoxOdd"/><text style="dominant-baseline: middle; font-size: 10.2px;" transform="translate(5,35)" y="0" x="0" id="text-entity-FAVORITES-499fa7cc-2d1a-5e2c-8a73-1ac84b198240-attr-1-type" class="er entityLabel">int</text><rect height="22" width="65.07421875" y="24" x="34.92578125" class="er attributeBoxOdd"/><text style="dominant-baseline: middle; font-size: 10.2px;" transform="translate(39.92578125,35)" y="0" x="0" id="text-entity-FAVORITES-499fa7cc-2d1a-5e2c-8a73-1ac84b198240-attr-1-name" class="er entityLabel">user_id</text><rect height="22" width="34.92578125" y="46" x="0" class="er attributeBoxEven"/><text style="dominant-baseline: middle; font-size: 10.2px;" transform="translate(5,57)" y="0" x="0" id="text-entity-FAVORITES-499fa7cc-2d1a-5e2c-8a73-1ac84b198240-attr-2-type" class="er entityLabel">int</text><rect height="22" width="65.07421875" y="46" x="34.92578125" class="er attributeBoxEven"/><text style="dominant-baseline: middle; font-size: 10.2px;" transform="translate(39.92578125,57)" y="0" x="0" id="text-entity-FAVORITES-499fa7cc-2d1a-5e2c-8a73-1ac84b198240-attr-2-name" class="er entityLabel">recipe_id</text></g><g transform="translate(226.28125,232 )" id="entity-RECIPES-b4e9118b-43f9-5134-b235-6a268ca8f0cf"><rect height="222" width="106.8203125" y="0" x="0" class="er entityBox"/><text style="dominant-baseline: middle; text-anchor: middle; font-size: 12px;" transform="translate(53.41015625,12)" y="0" x="0" id="text-entity-RECIPES-b4e9118b-43f9-5134-b235-6a268ca8f0cf" class="er entityLabel">RECIPES</text><rect height="22" width="35.7421875" y="24" x="0" class="er attributeBoxOdd"/><text style="dominant-baseline: middle; font-size: 10.2px;" transform="translate(5,35)" y="0" x="0" id="text-entity-RECIPES-b4e9118b-43f9-5134-b235-6a268ca8f0cf-attr-1-type" class="er entityLabel">int</text><rect height="22" width="71.078125" y="24" x="35.7421875" class="er attributeBoxOdd"/><text style="dominant-baseline: middle; font-size: 10.2px;" transform="translate(40.7421875,35)" y="0" x="0" id="text-entity-RECIPES-b4e9118b-43f9-5134-b235-6a268ca8f0cf-attr-1-name" class="er entityLabel">id</text><rect height="22" width="35.7421875" y="46" x="0" class="er attributeBoxEven"/><text style="dominant-baseline: middle; font-size: 10.2px;" transform="translate(5,57)" y="0" x="0" id="text-entity-RECIPES-b4e9118b-43f9-5134-b235-6a268ca8f0cf-attr-2-type" class="er entityLabel">string</text><rect height="22" width="71.078125" y="46" x="35.7421875" class="er attributeBoxEven"/><text style="dominant-baseline: middle; font-size: 10.2px;" transform="translate(40.7421875,57)" y="0" x="0" id="text-entity-RECIPES-b4e9118b-43f9-5134-b235-6a268ca8f0cf-attr-2-name" class="er entityLabel">title</text><rect height="22" width="35.7421875" y="68" x="0" class="er attributeBoxOdd"/><text style="dominant-baseline: middle; font-size: 10.2px;" transform="translate(5,79)" y="0" x="0" id="text-entity-RECIPES-b4e9118b-43f9-5134-b235-6a268ca8f0cf-attr-3-type" class="er entityLabel">int</text><rect height="22" width="71.078125" y="68" x="35.7421875" class="er attributeBoxOdd"/><text style="dominant-baseline: middle; font-size: 10.2px;" transform="translate(40.7421875,79)" y="0" x="0" id="text-entity-RECIPES-b4e9118b-43f9-5134-b235-6a268ca8f0cf-attr-3-name" class="er entityLabel">prep_time</text><rect height="22" width="35.7421875" y="90" x="0" class="er attributeBoxEven"/><text style="dominant-baseline: middle; font-size: 10.2px;" transform="translate(5,101)" y="0" x="0" id="text-entity-RECIPES-b4e9118b-43f9-5134-b235-6a268ca8f0cf-attr-4-type" class="er entityLabel">int</text><rect height="22" width="71.078125" y="90" x="35.7421875" class="er attributeBoxEven"/><text style="dominant-baseline: middle; font-size: 10.2px;" transform="translate(40.7421875,101)" y="0" x="0" id="text-entity-RECIPES-b4e9118b-43f9-5134-b235-6a268ca8f0cf-attr-4-name" class="er entityLabel">cooking_time</text><rect height="22" width="35.7421875" y="112" x="0" class="er attributeBoxOdd"/><text style="dominant-baseline: middle; font-size: 10.2px;" transform="translate(5,123)" y="0" x="0" id="text-entity-RECIPES-b4e9118b-43f9-5134-b235-6a268ca8f0cf-attr-5-type" class="er entityLabel">int</text><rect height="22" width="71.078125" y="112" x="35.7421875" class="er attributeBoxOdd"/><text style="dominant-baseline: middle; font-size: 10.2px;" transform="translate(40.7421875,123)" y="0" x="0" id="text-entity-RECIPES-b4e9118b-43f9-5134-b235-6a268ca8f0cf-attr-5-name" class="er entityLabel">servings</text><rect height="22" width="35.7421875" y="134" x="0" class="er attributeBoxEven"/><text style="dominant-baseline: middle; font-size: 10.2px;" transform="translate(5,145)" y="0" x="0" id="text-entity-RECIPES-b4e9118b-43f9-5134-b235-6a268ca8f0cf-attr-6-type" class="er entityLabel">text</text><rect height="22" width="71.078125" y="134" x="35.7421875" class="er attributeBoxEven"/><text style="dominant-baseline: middle; font-size: 10.2px;" transform="translate(40.7421875,145)" y="0" x="0" id="text-entity-RECIPES-b4e9118b-43f9-5134-b235-6a268ca8f0cf-attr-6-name" class="er entityLabel">ingredients</text><rect height="22" width="35.7421875" y="156" x="0" class="er attributeBoxOdd"/><text style="dominant-baseline: middle; font-size: 10.2px;" transform="translate(5,167)" y="0" x="0" id="text-entity-RECIPES-b4e9118b-43f9-5134-b235-6a268ca8f0cf-attr-7-type" class="er entityLabel">text</text><rect height="22" width="71.078125" y="156" x="35.7421875" class="er attributeBoxOdd"/><text style="dominant-baseline: middle; font-size: 10.2px;" transform="translate(40.7421875,167)" y="0" x="0" id="text-entity-RECIPES-b4e9118b-43f9-5134-b235-6a268ca8f0cf-attr-7-name" class="er entityLabel">steps</text><rect height="22" width="35.7421875" y="178" x="0" class="er attributeBoxEven"/><text style="dominant-baseline: middle; font-size: 10.2px;" transform="translate(5,189)" y="0" x="0" id="text-entity-RECIPES-b4e9118b-43f9-5134-b235-6a268ca8f0cf-attr-8-type" class="er entityLabel">int</text><rect height="22" width="71.078125" y="178" x="35.7421875" class="er attributeBoxEven"/><text style="dominant-baseline: middle; font-size: 10.2px;" transform="translate(40.7421875,189)" y="0" x="0" id="text-entity-RECIPES-b4e9118b-43f9-5134-b235-6a268ca8f0cf-attr-8-name" class="er entityLabel">image_id</text><rect height="22" width="35.7421875" y="200" x="0" class="er attributeBoxOdd"/><text style="dominant-baseline: middle; font-size: 10.2px;" transform="translate(5,211)" y="0" x="0" id="text-entity-RECIPES-b4e9118b-43f9-5134-b235-6a268ca8f0cf-attr-9-type" class="er entityLabel">int</text><rect height="22" width="71.078125" y="200" x="35.7421875" class="er attributeBoxOdd"/><text style="dominant-baseline: middle; font-size: 10.2px;" transform="translate(40.7421875,211)" y="0" x="0" id="text-entity-RECIPES-b4e9118b-43f9-5134-b235-6a268ca8f0cf-attr-9-name" class="er entityLabel">user_id</text></g><g transform="translate(20,298 )" id="entity-TAGS-d29308f0-f2c6-5478-be38-7375374d6eb9"><rect height="90" width="106.28125" y="0" x="0" class="er entityBox"/><text style="dominant-baseline: middle; text-anchor: middle; font-size: 12px;" transform="translate(53.140625,12)" y="0" x="0" id="text-entity-TAGS-d29308f0-f2c6-5478-be38-7375374d6eb9" class="er entityLabel">TAGS</text><rect height="22" width="35.7421875" y="24" x="0" class="er attributeBoxOdd"/><text style="dominant-baseline: middle; font-size: 10.2px;" transform="translate(5,35)" y="0" x="0" id="text-entity-TAGS-d29308f0-f2c6-5478-be38-7375374d6eb9-attr-1-type" class="er entityLabel">int</text><rect height="22" width="70.5390625" y="24" x="35.7421875" class="er attributeBoxOdd"/><text style="dominant-baseline: middle; font-size: 10.2px;" transform="translate(40.7421875,35)" y="0" x="0" id="text-entity-TAGS-d29308f0-f2c6-5478-be38-7375374d6eb9-attr-1-name" class="er entityLabel">id</text><rect height="22" width="35.7421875" y="46" x="0" class="er attributeBoxEven"/><text style="dominant-baseline: middle; font-size: 10.2px;" transform="translate(5,57)" y="0" x="0" id="text-entity-TAGS-d29308f0-f2c6-5478-be38-7375374d6eb9-attr-2-type" class="er entityLabel">string</text><rect height="22" width="70.5390625" y="46" x="35.7421875" class="er attributeBoxEven"/><text style="dominant-baseline: middle; font-size: 10.2px;" transform="translate(40.7421875,57)" y="0" x="0" id="text-entity-TAGS-d29308f0-f2c6-5478-be38-7375374d6eb9-attr-2-name" class="er entityLabel">season_name</text><rect height="22" width="35.7421875" y="68" x="0" class="er attributeBoxOdd"/><text style="dominant-baseline: middle; font-size: 10.2px;" transform="translate(5,79)" y="0" x="0" id="text-entity-TAGS-d29308f0-f2c6-5478-be38-7375374d6eb9-attr-3-type" class="er entityLabel">string</text><rect height="22" width="70.5390625" y="68" x="35.7421875" class="er attributeBoxOdd"/><text style="dominant-baseline: middle; font-size: 10.2px;" transform="translate(40.7421875,79)" y="0" x="0" id="text-entity-TAGS-d29308f0-f2c6-5478-be38-7375374d6eb9-attr-3-name" class="er entityLabel">category</text></g><g transform="translate(73.0859375,554 )" id="entity-RECIPETAGS-926ab07d-6593-5d25-8d28-81156a864643"><rect height="68" width="100.109375" y="0" x="0" class="er entityBox"/><text style="dominant-baseline: middle; text-anchor: middle; font-size: 12px;" transform="translate(50.0546875,12)" y="0" x="0" id="text-entity-RECIPETAGS-926ab07d-6593-5d25-8d28-81156a864643" class="er entityLabel">RECIPE_TAGS</text><rect height="22" width="34.98046875" y="24" x="0" class="er attributeBoxOdd"/><text style="dominant-baseline: middle; font-size: 10.2px;" transform="translate(5,35)" y="0" x="0" id="text-entity-RECIPETAGS-926ab07d-6593-5d25-8d28-81156a864643-attr-1-type" class="er entityLabel">int</text><rect height="22" width="65.12890625" y="24" x="34.98046875" class="er attributeBoxOdd"/><text style="dominant-baseline: middle; font-size: 10.2px;" transform="translate(39.98046875,35)" y="0" x="0" id="text-entity-RECIPETAGS-926ab07d-6593-5d25-8d28-81156a864643-attr-1-name" class="er entityLabel">recipe_id</text><rect height="22" width="34.98046875" y="46" x="0" class="er attributeBoxEven"/><text style="dominant-baseline: middle; font-size: 10.2px;" transform="translate(5,57)" y="0" x="0" id="text-entity-RECIPETAGS-926ab07d-6593-5d25-8d28-81156a864643-attr-2-type" class="er entityLabel">int</text><rect height="22" width="65.12890625" y="46" x="34.98046875" class="er attributeBoxEven"/><text style="dominant-baseline: middle; font-size: 10.2px;" transform="translate(39.98046875,57)" y="0" x="0" id="text-entity-RECIPETAGS-926ab07d-6593-5d25-8d28-81156a864643-attr-2-name" class="er entityLabel">tag_id</text></g><g transform="translate(179.69140625,31 )" id="entity-IMAGES-c9e533ca-a164-57bb-a592-f412751ae74e"><rect height="90" width="100" y="0" x="0" class="er entityBox"/><text style="dominant-baseline: middle; text-anchor: middle; font-size: 12px;" transform="translate(50,12)" y="0" x="0" id="text-entity-IMAGES-c9e533ca-a164-57bb-a592-f412751ae74e" class="er entityLabel">IMAGES</text><rect height="22" width="42.23828125" y="24" x="0" class="er attributeBoxOdd"/><text style="dominant-baseline: middle; font-size: 10.2px;" transform="translate(5,35)" y="0" x="0" id="text-entity-IMAGES-c9e533ca-a164-57bb-a592-f412751ae74e-attr-1-type" class="er entityLabel">int</text><rect height="22" width="57.76171875" y="24" x="42.23828125" class="er attributeBoxOdd"/><text style="dominant-baseline: middle; font-size: 10.2px;" transform="translate(47.23828125,35)" y="0" x="0" id="text-entity-IMAGES-c9e533ca-a164-57bb-a592-f412751ae74e-attr-1-name" class="er entityLabel">id</text><rect height="22" width="42.23828125" y="46" x="0" class="er attributeBoxEven"/><text style="dominant-baseline: middle; font-size: 10.2px;" transform="translate(5,57)" y="0" x="0" id="text-entity-IMAGES-c9e533ca-a164-57bb-a592-f412751ae74e-attr-2-type" class="er entityLabel">string</text><rect height="22" width="57.76171875" y="46" x="42.23828125" class="er attributeBoxEven"/><text style="dominant-baseline: middle; font-size: 10.2px;" transform="translate(47.23828125,57)" y="0" x="0" id="text-entity-IMAGES-c9e533ca-a164-57bb-a592-f412751ae74e-attr-2-name" class="er entityLabel">file_path</text><rect height="22" width="42.23828125" y="68" x="0" class="er attributeBoxOdd"/><text style="dominant-baseline: middle; font-size: 10.2px;" transform="translate(5,79)" y="0" x="0" id="text-entity-IMAGES-c9e533ca-a164-57bb-a592-f412751ae74e-attr-3-type" class="er entityLabel">string</text><rect height="22" width="57.76171875" y="68" x="42.23828125" class="er attributeBoxOdd"/><text style="dominant-baseline: middle; font-size: 10.2px;" transform="translate(47.23828125,79)" y="0" x="0" id="text-entity-IMAGES-c9e533ca-a164-57bb-a592-f412751ae74e-attr-3-name" class="er entityLabel">file_type</text></g><rect height="14" width="26.7890625" y="186.57603454589844" x="359.6969299316406" class="er relationshipLabelBox"/><text style="text-anchor: middle; dominant-baseline: middle; font-size: 12px;" y="193.57603454589844" x="373.0914611816406" id="rel1" class="er relationshipLabel">owns</text><rect height="14" width="63.625" y="503.8680419921875" x="181.35971069335938" class="er relationshipLabelBox"/><text style="text-anchor: middle; dominant-baseline: middle; font-size: 12px;" y="510.8680419921875" x="213.17221069335938" id="rel2" class="er relationshipLabel">tagged with</text><rect height="14" width="21.9453125" y="466.7128601074219" x="64.54612731933594" class="er relationshipLabelBox"/><text style="text-anchor: middle; dominant-baseline: middle; font-size: 12px;" y="473.7128601074219" x="75.51878356933594" id="rel3" class="er relationshipLabel">tags</text><rect height="14" width="47.3046875" y="336.9363098144531" x="482.7440185546875" class="er relationshipLabelBox"/><text style="text-anchor: middle; dominant-baseline: middle; font-size: 12px;" y="343.9363098144531" x="506.3963623046875" id="rel4" class="er relationshipLabel">favorites</text><rect height="14" width="65.3515625" y="487.2713317871094" x="342.82183837890625" class="er relationshipLabelBox"/><text style="text-anchor: middle; dominant-baseline: middle; font-size: 12px;" y="494.2713317871094" x="375.49761962890625" id="rel5" class="er relationshipLabel">favorited by</text><rect height="14" width="69.6796875" y="170.3004608154297" x="197.0609588623047" class="er relationshipLabelBox"/><text style="text-anchor: middle; dominant-baseline: middle; font-size: 12px;" y="177.3004608154297" x="231.9008026123047" id="rel6" class="er relationshipLabel">recipe image</text></svg>