<?xml version="1.0" encoding="UTF-8"?><svg id="Layer_1" xmlns="http://www.w3.org/2000/svg" xmlns:xlink="http://www.w3.org/1999/xlink" viewBox="0 0 590.75 302.28"><defs><style>.cls-1,.cls-2{fill:none;}.cls-3{fill:#010101;}.cls-3,.cls-4,.cls-5,.cls-2,.cls-6,.cls-7,.cls-8{stroke:#010101;stroke-linecap:round;stroke-linejoin:round;stroke-width:1.5px;}.cls-4{fill:#a7d7b8;}.cls-5{fill:#f59d38;}.cls-9,.cls-7{fill:#fff;}.cls-6{fill:#7da2c5;}.cls-8{fill:#d15823;}.cls-10{clip-path:url(#clippath);}</style><clipPath id="clippath"><rect class="cls-1" width="590.75" height="302.28"/></clipPath></defs><g class="cls-10"><path class="cls-9" d="M128.93,101.02c-6.6-10-12.22-18.28-18.83-28.28-1.01-1.54-3.44-4.38-5.2-2.89-1.25,1.07-.43,6.03,5.32,13.36-5.61-7.95-8.32-11.4-13.94-19.35-.71-1.01-1.63-2.12-2.76-2.01-1.15.12-1.82,1.58-1.67,2.85.16,1.28.89,2.38,1.6,3.42,4.08,5.98,3.86,6.75,7.94,12.72-5.14-7.86-5.38-8.97-11.39-16.05-1-1.17-2.42-2.44-3.71-1.8-2.84,1.94,1.12,7,4.11,11,1.72,2.29,3.38,4.45,7.61,9.75-4.43-5.11-5.97-7.44-10.41-12.54-.83-.96-1.74-1.96-2.89-2.27-1.16-.31-2.59.45-2.6,1.75-.01.83.52,1.55,1.03,2.19,4.66,5.9,5.87,8.44,10.54,14.34-3.45-4.23-3.82-4.73-7.94-8.14-1.22-1.01-3.13-1.92-4.03-.63-.83,1.19.19,2.91,1.15,4.06,9.5,11.24,17.21,18.83,26.7,30.07"/><path class="cls-2" d="M128.93,101.02c-6.6-10-12.22-18.28-18.83-28.28-1.01-1.54-3.44-4.38-5.2-2.89-1.25,1.07-.43,6.03,5.32,13.36-5.61-7.95-8.32-11.4-13.94-19.35-.71-1.01-1.63-2.12-2.76-2.01-1.15.12-1.82,1.58-1.67,2.85.16,1.28.89,2.38,1.6,3.42,4.08,5.98,3.86,6.75,7.94,12.72-5.14-7.86-5.38-8.97-11.39-16.05-1-1.17-2.42-2.44-3.71-1.8-2.84,1.94,1.12,7,4.11,11,1.72,2.29,3.38,4.45,7.61,9.75-4.43-5.11-5.97-7.44-10.41-12.54-.83-.96-1.74-1.96-2.89-2.27-1.16-.31-2.59.45-2.6,1.75-.01.83.52,1.55,1.03,2.19,4.66,5.9,5.87,8.44,10.54,14.34-3.45-4.23-3.82-4.73-7.94-8.14-1.22-1.01-3.13-1.92-4.03-.63-.83,1.19.19,2.91,1.15,4.06,9.5,11.24,17.21,18.83,26.7,30.07"/><path class="cls-2" d="M110.22,83.23c-1.5,1.84-2.84,3.84-3.63,6.07-.79,2.24-.98,4.74-.19,6.97"/><path class="cls-4" d="M124.02,301.03c-8.14-18.02-20.65-34.05-26.7-52.88-1.5-4.68-2.6-9.61-1.96-14.48,1.79-13.71,30.04-27.57,57.72,10.77,15.21,21.05,24.06,33.86,34.82,56.08-26.07.82-46.68.52-63.87.52h0Z"/><path class="cls-4" d="M128.91,301.03c-4.58-7.5-10.26-16-14.84-23.5-4.03-6.59-8.15-13.29-13.97-18.36-5.74-5.01-13.03-8.23-20.6-9.11-5.88-.68-12.57.39-16.19,5.07-3.22,4.17-3.1,9.99-2.27,15.2,1.88,11.75,6.69,23.03,14.17,30.94,14.75-.1,30.59.8,53.7-.23Z"/><path class="cls-2" d="M107.29,221.38c4.24,5.46,33.91,54.27,49.28,79.68"/><path class="cls-2" d="M69.87,251.31c11.47,16.4,20.61,32.57,30.83,49.77"/><path class="cls-2" d="M149.99,239.7l-11.61,30.83"/><path class="cls-2" d="M97.89,249.87l29.74,3.66"/><path class="cls-2" d="M110.15,272.5l-16.33,16.93"/><path class="cls-8" d="M145.2,158.3c-2.86.2-6.1.6-7.79,2.92-1.02,1.4-1.23,3.24-.94,4.76,11,39.57,17.84,78.13,32.26,115.86,2.48,8.93,6.37,7.81,9.56,7.98,7.71.4,112.3-.44,177.8-.42,2.52,0,5-2.03,5.26-4.54.27-2.62-2.28-10.2-5.3-18.82-7.06-24.63-23.99-79.35-30.77-103.01-1-3.49-4.67-6.01-8.3-5.91-29.1.79-168.75.98-171.79,1.2Z"/><path class="cls-3" d="M358.51,8.52c4.94-4.48,11.48.42,15.08,5.58,2.6,3.72,4.61,8.03,4.65,12.56.04,4.74-2.07,9.44-1.19,14.1.7,3.69,3.22,6.95,3.32,10.7.11,4.42-3.2,8.6-2.28,12.93.48,2.22,2.02,4.06,2.88,6.17,1.34,3.26.92,7.18-1.07,10.08-21.9-.53-43.81-1.06-65.89-1.45-8.68-1.51-14.95-1.93-25.9-3.84-1.71-.3-3.51-.91-4.53-2.31-1.32-1.81-.73-4.42.46-6.32s2.91-3.44,3.99-5.4c3.01-5.48.42-14.3,3.53-19.73,1.81-3.15,5.26-5.1,6.98-8.29,2.25-4.17,1.07-9.52,3.19-13.75,2.46-4.92,9.18-5.22,13.98-7.91,5.65-3.16,10.37-8.11,16.56-10.01,4.63-1.43,9.68-.98,14.32.42,4.64,1.39,9.55,3.51,11.92,6.48Z"/><path class="cls-7" d="M145.2,166.33c9.03,36.6,20.05,78.38,31.57,114.14,67.8,0,109.04.17,175.03.17-10.7-33.23-34.71-114.85-34.71-114.85,0,0-164.85.43-171.89.55Z"/><path class="cls-7" d="M357.71,18.42c-.34,2.99,3.03,4.85,4.93,7.19,2.03,2.51,2.45,5.94,2.47,9.17.05,8.31-2.34,23.7-5.19,29.22-3.13,6.06-7.68,8.35-14.66,8.35-.83,6.02-2.16,12.8-3.38,18.75,7.82.11,15.63.75,23.36,1.89-1.22,6.52-2.66,13.07-5.49,19.07-2.77,5.88-6.81,11.07-11.16,15.91-3.57,3.97-7.42,7.77-11.97,10.57-6.37,3.91-14.02,5.7-21.46,5.01-2.8-.26-5.61-.88-8.07-2.24-2.36-1.31-4.29-3.26-6.03-5.32-8.63-10.25-12.86-24.94-8.08-37.45,1.15-3.02,2.82-6.25,1.82-9.45,1.7-1.32,2.12-2.11,4.27-2.11,3.37,0,9.71,1.13,12.53.55,1-2.62,1.98-5.97,2.56-9.12,5.18,1.39,6.94,1.48,9.29,1.2,5.11-.61,3.55-8.82,3.48-10.69-.19-5.75,3.35-5.77,1.4-16.5-5.77,3.81-10.26-4.37-6.88-9.89,1.22-1.99,3.27-3.47,5.56-3.93,1.14-.23,2.35-.2,3.41.26,1.07.45,1.96,1.37,2.55,2.59,2.55-.35,3.49-3.54,5.52-5.13,1.31-1.02,3.07-1.35,4.32-2.45,1.88-1.66,2.23-4.75,4.42-5.97.71-.4,1.54-.53,2.31-.78,3.92-1.26,6.3-5.32,8.18-8.7h0Z"/><path class="cls-5" d="M251.57,151.24c-11.73,23.58-20.9,49.94-29.41,74.87,39.59,7.94,78.99,13.92,118.59,18.1,8.32-33.78,19.13-68.11,27.11-100.51,8.56,12.29,17.92,27.26,28.02,38.85,19.78,22.7,36.68,25.27,50.78,20.85,13.65-4.29,40.14-20.27,53.26-128.58-15.51-2.37-24.9-2.3-39.28-4.5-9.02,34.22-15.36,56.96-25.35,94.9-5.39-6.36-11.75-26.66-30.71-51.13-6-7.74-13.29-14.77-22.23-18.76-7.05-3.15-14.99-4.29-22.65-3.26-12.69,12.63-27.7,23.75-39.86,36.22-6.57-13.98-14.02-26.3-19.8-41.22-26.74-2.61-43.65,7.31-60.76,20.15s-31.7,28.8-48.67,41.82c-23.12-20.2-43.54-40.55-62.16-62.43-7.94,10.13-19.41,19.37-28.23,30.87,9.29,9.56,36.25,40.51,56.54,57.4,9.65,8.03,21.42,15.92,33.87,14.27,5.56-.74,11.17-2.13,16.08-4.85,11.05-6.13,29.96-20.45,44.89-33.05h0Z"/><path class="cls-2" d="M334.17,69.34c3.65,2.73,8.62,3.11,12.41,2.98"/><path class="cls-2" d="M357.2,40c1.07,3.22,2.33,6.38,3.75,9.45-1.39,1.22-3.09,2.09-4.89,2.5"/><path class="cls-6" d="M222.51,226.26c-5.31,17.42-11.46,35.41-17.93,53.51,19.26-.04,33.41.05,56.54.05,3.67-4.63,10.5-12.01,10.5-12.01,0,0,2.43,8.27,4.31,12.03,19.35-.05,38.21-.86,56.42-.81,1.61-3.7,6.42-26.49,8.4-34.82-9.85-3.9-81.17-21.8-118.24-17.95Z"/><path class="cls-2" d="M320.09,127.83c-12.68,39.87-21.76,70.93-34.01,109.44"/><path class="cls-8" d="M394.68,54.08c38.62,2.14,77.34,2.61,116,1.4-2.77-.65-4.38-3.09-5.26-5.38-2.64-6.86.96-16.7,5.72-22.3-38.97,2.89-78.37,7.95-116.28,12.89-4.78,1.1-4.95,7.35-3.77,10.85.44,1.29,1.32,2.42,3.6,2.54h0Z"/><path class="cls-8" d="M504.59,31.94c2.49-4.4,6.6-4.7,9.12-3.97,6.94,2.01,6.35,16.13,3.93,22.62-.9,2.39-2.57,4.9-5.12,5.15-2.33.23-5.86-.56-7.23-2.46-4.28-5.96-5.19-13.41-.7-21.34h0Z"/><path class="cls-7" d="M507.8,34.92c1.42-3.06,3.75-3.27,5.18-2.76,3.94,1.4,3.61,11.22,2.23,15.73-.51,1.67-1.46,3.41-2.91,3.58-1.32.16-3.34-.39-4.11-1.71-2.43-4.15-2.95-9.33-.4-14.84h0Z"/><path class="cls-7" d="M490.57,73.57c1.47-3.22,2.77-10.4,1.58-17.43-.1-.19-14.9-.14-21.7-.36-.85-1.36-1.75-5.12-2.5-6.33-.29-.47-.61-.94-1.08-1.22-.83-.49-1.96-.24-2.67.42-.71.65-1.07,1.61-1.23,2.56-.34,2,.83,7.54,1.26,9.53.75,3.53,1.52,7.59,3.5,10.53,5,.34,22.84,2.29,22.84,2.29h0Z"/><path class="cls-8" d="M435.78,289.86h-253.53c-3.03,0-5.49,2.46-5.49,5.49h0c0,3.03,2.46,5.49,5.49,5.49h253.53c3.03,0,5.49-2.46,5.49-5.49h0c0-3.03-2.46-5.49-5.49-5.49Z"/><path class="cls-2" d="M288.44,289.39c-1.69.74-3.27,1.82-4.32,3.34-1.05,1.52-1.51,3.5-.93,5.25.57,1.75,2.28,3.15,4.12,3.1"/><path class="cls-2" d="M353.99,289.75c.38,1.89.93,4.02,2.63,4.95.97.53,2.14.54,3.24.53,6.57-.03,13.14-.06,19.7-.09.46,0,.94,0,1.37-.17,1.7-.66,1.6-3.13,2.69-4.59"/><path class="cls-2" d="M71.42,195.4c-4.03,3.38-3.42,1.76-7.45,5.14"/><path class="cls-2" d="M391.29,231.55c.91,2.98,1.82,5.96,2.73,8.95"/><path class="cls-2" d="M470.46,55.78c.33,1.3.85,2.34,1.12,3.63,2.36-.79,5.04-.54,7.21.67,2.17,1.21,3.79,3.36,4.36,5.78"/><path class="cls-3" d="M531.58,114.59c-.56.17-.83.91-.56,1.43.27.52.99.72,1.51.46.52-.26.79-.95.54-1.47-.25-.52-.93-.6-1.49-.42Z"/><path class="cls-3" d="M173.49,72.46c-.64.2-.96,1.05-.65,1.64s1.14.83,1.74.53c.6-.3.91-1.09.62-1.69s-1.07-.68-1.71-.48Z"/><path class="cls-3" d="M323.54,142.59c-.64.2-.96,1.05-.65,1.64.31.6,1.14.83,1.74.53.6-.3.91-1.09.62-1.69-.28-.6-1.07-.68-1.71-.48Z"/><path class="cls-3" d="M315.79,169.08c-.64.2-.96,1.05-.65,1.64s1.14.83,1.74.53c.6-.3.91-1.09.62-1.69-.28-.6-1.07-.68-1.71-.48Z"/><path class="cls-3" d="M308.49,193.44c-.64.2-.96,1.05-.65,1.64s1.14.83,1.74.53c.6-.3.91-1.09.62-1.69-.28-.6-1.07-.68-1.71-.48Z"/><path class="cls-3" d="M301.56,217.71c-.64.2-.96,1.05-.65,1.64s1.14.83,1.74.53c.6-.3.91-1.09.62-1.69-.28-.6-1.07-.68-1.71-.48Z"/></g></svg>