<?xml version="1.0" encoding="UTF-8"?><svg id="Layer_1" xmlns="http://www.w3.org/2000/svg" viewBox="0 0 669.18 511.63"><defs><style>.cls-1{fill:#2f2e41;}.cls-2{fill:#e6e6e6;}.cls-3{fill:#ffb6b6;}.cls-4{fill:#7da2c5;}.cls-5{fill:#3f3d56;}.cls-6{fill:#ccc;}.cls-7{fill:#fff;}.cls-8{fill:#f59d38;}.cls-9{fill:#ffb7b7;}.cls-10{fill:#f2f2f2;}.cls-11{fill:#d15823;}.cls-12{fill:#a7d7b8;}</style></defs><path class="cls-10" d="M623.9,441.04l1.14-25.72c11.92-6.37,25.22-9.74,38.74-9.81-18.61,15.21-16.28,44.54-28.9,65-8.07,12.86-21.55,21.36-36.64,23.09l-15.57,9.53c-4.32-24.11,2.12-48.9,17.65-67.85,4.35-5.21,9.35-9.85,14.86-13.81,3.73,9.83,8.71,19.56,8.71,19.56Z"/><path class="cls-10" d="M387.76,509.54c-7.93-.56-10,1-22,0h-22l2.86-52.65,34.63,13.88,172.11,4.23-.1.29c-.08.22-7.72,22.58-1.75,31.04l.25.35h-.48s-157.89,1.45-157.89,1.45c-1.72.02-3.93,1.53-5.64,1.41Z"/><path class="cls-6" d="M396.69,510.23c-15.32-1.09-31.19,4.87-44.43-1.86l-10.58.64-.03-.09c-.08-.24-5.08-39.59,5.03-54.84l.45-.67.35,3.61-3.33,49.01,7.39-2.46c17.94,8.44,39.27,2.87,59.8,2.79l139.71-.52c2.93,0,5.36,1.99,5.44,4.46v.24s-151.35-.01-151.35-.01c-2.82,0-5.64-.1-8.44-.3Z"/><polygon class="cls-2" points="543.67 485.62 386.44 482.49 386.28 482.43 349.13 468.51 349.83 466.64 386.82 480.5 543.71 483.62 543.67 485.62"/><polygon class="cls-2" points="542.83 494.03 385.6 490.91 385.44 490.85 348.29 476.93 348.99 475.05 385.98 488.92 542.87 492.03 542.83 494.03"/><polygon class="cls-2" points="541.99 502.45 384.76 499.33 384.6 499.27 347.45 485.35 348.16 483.47 385.14 497.34 542.03 500.45 541.99 502.45"/><path class="cls-2" d="M397.77,475.54c-14.58-.98-28.79-5-41.73-11.78l-10.9-5.78.28-2.86c.16-.87.96-1.47,1.84-1.4h.96s146.63,2.17,146.63,2.17c9.6.12,19.11,1.84,28.13,5.11l31.95,11.6-.02.17c-.27,2.69-2.98,4.77-6.18,4.74l-144.43-1.69c-2.18-.03-4.36-.12-6.53-.27Z"/><polygon class="cls-6" points="554.63 473.22 554.6 473.22 378.76 469.19 378.64 469.13 346.94 454.45 347.26 453.96 348.22 453.97 379.06 468.26 553.26 472.25 554.66 472.28 554.63 473.22"/><path class="cls-6" d="M417.93,455l-2.23-.03-50.39-.75-2.39-.03c11.51,12.26,36.97,15.32,74.29,10.58l-19.28-9.77Z"/><polygon class="cls-3" points="559.61 161.81 562.69 168.96 557.66 194.36 506.41 187.23 506.82 156.27 507.85 149.48 559.61 161.81"/><polygon class="cls-3" points="586.09 490.94 574.79 490.94 569.4 447.33 586.09 447.33 586.09 490.94"/><path class="cls-11" d="M552.46,505.7c0,2.67,2.16,4.83,4.83,4.83h21.51l3.71-7.65,1.44,7.65h8.11l-2.28-27.34-3.69-.22-12.38-.74-2-.12v7.75l-17.17,11.86c-1.31.9-2.09,2.39-2.09,3.98Z"/><polygon class="cls-3" points="481.58 440.94 470.27 440.94 463.62 376.73 484.86 375.46 481.58 440.94"/><path class="cls-11" d="M447.94,455.7c0,2.67,2.16,4.83,4.83,4.83h21.51l3.71-7.65,1.44,7.65h8.11l-2.28-27.34-3.29-.19-12.6-.76-2.18-.12v7.75l-17.17,11.86c-1.31.9-2.09,2.39-2.09,3.98Z"/><path class="cls-4" d="M590.89,453.33h-.04l-2.17-70.92c2.86-5.51,2.77-12.09-.24-17.52l-.31-.56.81-3.74c1.04-4.81.56-9.82-1.36-14.35l-2.03-66.15c7.25-46.97-27.29-77.61-27.29-77.61l3.17-24.62-55.87,1.27.95,23.35-11.11,38.17c-5.85,56.96-45.19,92.76-39.21,147.23.01.16-.01.31-.07.46-1.23,3.73-.82,7.81,1.12,11.22.25.43.42.9.51,1.39,1.23,9.55,1.39-2.53,3.03,6.93l-.32.16c-1.14.39-1.63,1.98-1.1,3.54s1.9,2.5,3.05,2.11l29.87.32c1.14-.39,1.63-1.98,1.1-3.54-.54-1.56-1.9-2.5-3.05-2.11l-1.86.94,3.11-10.17,1.09-1.02c1.91-1.79,2.02-4.78.23-6.69-.25-.27-.53-.5-.83-.71h0l3.1-16.53-.44-12.5.91-14.18,39.19-56.79,15.86,78.44,16.2,84.96c-.77.69-1.12,1.74-.93,2.75.31,1.44,1.59,2.46,3.07,2.43h21.99c1.65,0,2.99-1.34,2.99-3,0-.27-.04-.54-.11-.79-.38-1.31-1.6-2.21-2.96-2.19Z"/><path class="cls-1" d="M571.34,41.14c0,15.28-12.37,27.67-27.65,27.67-15.28,0-27.67-12.37-27.67-27.65,0-7.16,2.77-14.05,7.75-19.21l.13-.13c.22-.23.44-.46.67-.69,0,0,.01,0,.01-.01h0c.32-.23.61-.5.87-.79,3.73-5.22,7.97-9.59,18.22-6.86,14.76,3.94,27.66,12.38,27.66,27.66Z"/><path class="cls-3" d="M419.39,29.3c-.24,5.59,4.1,10.32,9.69,10.55.6.03,1.19,0,1.78-.08l71.34,58.55,10.9-19.15-73.55-51.53c-1.12-5.51-6.5-9.08-12.01-7.96-4.61.94-7.98,4.91-8.15,9.62h0Z"/><path class="cls-8" d="M532.33,115.58s-.02-2.11-11.36-2.03c-14.08.1-52.85-20.11-49.45-39.14-3.31,1.5-7.22.56-9.49-2.28l18.87-18.17c5.92.4,5.98,4.36,5.48,6.64l15.17,6.03,39.51,22.7-6.98,22.8-1.74,3.46Z"/><circle class="cls-9" cx="536.87" cy="47.54" r="23.2"/><path class="cls-8" d="M504.99,162.91c-2.64,3.52-2.45,8.42.45,11.73.01.68.11,1.34,1.08,3.78.13.24.27.46.44.67.03.05.07.1.1.15,1.02,1.31,2.43,2.26,4.03,2.71l42.46,11.85,5.61,1.56.99.27.54-7.67c2.61-2.16,3.25-5.9,1.51-8.81l-.78-1.29,4.56-12.26.44-1.21,11.62-31.29v-2.09s.03-2.15.03-2.15l.11-15.04c.01-9.61-4.48-18.67-12.13-24.47-3.44-2.63-7.4-4.48-11.62-5.44h-.09s-4.59-6.19-4.59-6.19l-18.63,1.86-1.54,3.16-1.87,3.81-13.51,8.04-4.62,10.73-3.12,7.26c-4.83,3.47-7.71,7.93-8.54,13.23-1.77,11.27,6.12,22.56,7.07,23.85l.24,12.94-.24.32Z"/><path class="cls-1" d="M561.14,53.62c-.21-.03-.42-.08-.63-.11-3.62-.64-7.24-1.27-10.84-1.93l-.33-8.18-4.37,7.32c-9.97,3.31-19.3,1.44-28.07-2.69-2.89-1.37-5.7-2.92-8.41-4.64-.89-13.83,4.7-22.68,15.1-21.75.38.03.65-.35.98-.52,0,0,.01,0,.01-.01h0c.56-.27,1.14-.52,1.72-.75,9.19-3.59,19.64-1.57,26.82,5.2,7.08,6.76,10.27,17.92,8.02,28.05Z"/><path class="cls-11" d="M560.51,53.51s-6.87-25.65-36.33-31.57c-.03-.01-.14-.06-.29-.12-.09-.06-.2-.11-.31-.17.33-.19.65-.35.98-.52,0,0,.01,0,.01-.01h0c.29-.27.58-.53.87-.79l.84.03s29.55-4.68,34.21,33.14Z"/><path class="cls-4" d="M571.84,215.19c-1.11.95-2.66,1.2-4.02.65-1.32-.56-2.5-1.42-3.43-2.51-3.82-4-6.54-8.92-7.92-14.27l1.27-2.26c-1.03-5.75,2.09-11.44,7.49-13.68,1.49-.63,3.14-.78,4.72-.41,1.59.4,2.84,1.63,3.25,3.22.49,2.42-1.53,4.61-3.57,6-3.56,2.42-7.67,3.89-11.96,4.28,5.24,2.95,9.77,7.02,13.27,11.91.81,1.02,1.41,2.19,1.76,3.45.34,1.28.01,2.64-.87,3.63Z"/><path id="be339808-9edc-488a-82d9-9b8c80f783b0-665" class="cls-6" d="M278.65,511.36h389.28c.69,0,1.25-.56,1.25-1.25s-.56-1.25-1.25-1.25h-389.28c-.69,0-1.25.56-1.25,1.25s.56,1.25,1.25,1.25h0Z"/><path class="cls-7" d="M382.03,190.77v.65c-1.4-1.64-2.83-3.27-4.25-4.9-.59-.68-1.19-1.36-1.78-2.04-2.52-2.86-5.06-5.71-7.61-8.56-2.56-2.83-5.13-5.67-7.72-8.48-.62-.68-1.25-1.36-1.88-2.04-.51-.57-1.06-1.1-1.66-1.59-.6-.5-1.29-.88-2.03-1.12-.85-.24-1.75-.25-2.61-.03-.98.23-1.91.58-2.86.88-.98.33-1.94.64-2.92.95-1.95.64-3.9,1.27-5.85,1.91-.1.04-.21,0-.25-.11h0s0,0,0,0c-.04-.1,0-.22.11-.26.01,0,.02,0,.04-.01.48-.16.98-.31,1.47-.47,1.97-.65,3.92-1.29,5.89-1.93.98-.33,1.95-.64,2.93-.95.91-.34,1.86-.54,2.83-.57,1.58.11,3.07.81,4.16,1.95.61.57,1.16,1.16,1.71,1.77.65.71,1.3,1.42,1.95,2.12,2.62,2.86,5.22,5.73,7.8,8.61,2.59,2.89,5.16,5.78,7.71,8.68.18.21.37.42.55.64,1.43,1.61,2.83,3.24,4.25,4.87Z"/><path class="cls-7" d="M356.91,166.42c-.54-.69-1.25-1.22-2.06-1.53l-.81.03c6.32,9.84,14.6,18.27,24.33,24.76-7.15-7.75-14.31-15.5-21.46-23.25Z"/><path class="cls-6" d="M488.84,268.65l-32.09-171.81c-1.13-5.83-6.15-10.11-12.09-10.3-.26,0-.52,0-.78,0l-21.86.78-2.35.09-10.91.39-2.35.08-7.02.25-141.5,5.08c-.21.01-.43.01-.65,0l-31.71-.66-11.73-.24h-.37s-8.66-.19-8.66-.19l-75.47-1.57-20.01-.42-9.87-.2-2.36-.05-11.25-.23-2.36-.05-11.51-.24-2.36-.05-12.64-.27-1.98-.04-11.28-.24-1.78-.03h-.26c-6.18.03-11.45,4.5-12.47,10.6L.17,277.63c-1.12,6.88,3.55,13.37,10.43,14.49.67.11,1.35.16,2.03.16h166.66c2.45,0,4.84.79,6.82,2.25l3.16,2.34c2.18,1.6,4.81,2.47,7.51,2.48,32.19-8.5,66.03-8.5,98.22,0,3.35,0,6.57-1.32,8.93-3.7,2-2,4.67-3.19,7.5-3.34l165.67-8.73c6.96-.36,12.31-6.3,11.95-13.27-.03-.56-.1-1.11-.2-1.66h0Z"/><path class="cls-10" d="M443.44,241.86c-.44,12.12-10.63,21.6-22.75,21.16-9.62-.34-21.1-.51-33.56-.25-40.69.87-91.81,6.47-122.56,26.61-3.86,2.54-8.43,3.79-13.05,3.58-.34-.02-.67-.04-1.01-.07-4.79-.44-9.3-2.44-12.84-5.69-16.94-15.5-55.79-34.27-144.72-35.59-.37,0-.73-.02-1.09-.04-12.11-.76-21.3-11.19-20.54-23.3,0,0,0-.01,0-.02l8.74-138.71,1.31-20.79,2.3-36.37c.48-7.6,6.78-13.52,14.4-13.53h.09l52.98.31c22.32,1.01,40.81,3.85,55.46,8.53,5.01,1.55,9.87,3.51,14.56,5.86,6.4,3.1,12.15,7.4,16.94,12.65,2.98,3.36,7.06,5.56,11.5,6.21.69.1,1.38.17,2.08.19,4.1.17,8.14-.99,11.53-3.3,34.61-23.19,105.14-24.95,144.09-23.95,11.29.26,20.53,9.05,21.36,20.31l1.58,20.69,1.57,20.63,9.06,119.23,2.52,33.17c.06.83.08,1.65.05,2.48Z"/><path class="cls-5" d="M106.13,67.66c31.93-10.19,67.55-7.49,97.79,6.86,8.63,4.07,16.78,9.09,24.3,14.97,2.13,1.67,5.15-1.32,3-3-27.78-21.55-62.69-31.78-97.7-28.65-9.69.87-19.25,2.79-28.52,5.73-2.6.83-1.49,4.93,1.13,4.1h0Z"/><path class="cls-5" d="M281.82,91.14c29.68-15.6,65.23-19,97.5-10.15,9.2,2.52,18.09,6.05,26.51,10.54,2.41,1.29,4.56-2.38,2.14-3.67-30.76-16.41-67.68-20.19-101.27-11.04-9.37,2.56-18.43,6.13-27.03,10.65-2.42,1.27-.28,4.94,2.14,3.67Z"/><path class="cls-5" d="M281.82,119.47c29.68-15.6,65.23-19,97.5-10.15,9.2,2.52,18.09,6.05,26.51,10.54,2.41,1.29,4.56-2.38,2.14-3.67-30.76-16.41-67.68-20.19-101.27-11.04-9.37,2.56-18.43,6.13-27.03,10.65-2.42,1.27-.28,4.94,2.14,3.67h0Z"/><path class="cls-5" d="M409.02,146.28c.05-.75-.37-1.44-1.05-1.76-24.64-12.9-52.58-18.14-80.22-15.03-.17.01-.33.04-.52.06h0c-.17.02-.34.04-.51.08-16.44,1.89-32.39,6.81-47.04,14.5-.65.39-1.05,1.09-1.05,1.84v52.85c.02,1.18.99,2.13,2.18,2.11.17,0,.34-.03.51-.07.65-.19,1.3-.37,1.97-.54,14.81-4.01,30.02-6.39,45.35-7.09.33-.01.65-.03.99-.04,12.49-.54,24.99-.09,37.41,1.35.26.01.52.04.78.08.64.07,1.29.15,1.93.23.26.03.5.06.73.1,2.48.31,4.94.67,7.41,1.05,3.56.57,7.13,1.2,10.69,1.9.22.04.45.1.68.14,5.72,1.14,11.41,2.45,17.08,3.91,1.15.3,2.33-.4,2.62-1.55.04-.17.07-.33.07-.51v-53.51s0-.06-.01-.08Z"/><path class="cls-7" d="M300.52,146.5l-.57.41c.19-.15.4-.28.6-.41h-.03Z"/><path class="cls-5" d="M106.13,95.99c31.93-10.19,67.55-7.49,97.79,6.86,8.63,4.07,16.78,9.09,24.3,14.97,2.13,1.67,5.15-1.32,3-3-27.78-21.55-62.69-31.78-97.7-28.65-9.69.87-19.25,2.79-28.52,5.73-2.6.83-1.49,4.93,1.13,4.1h0Z"/><path class="cls-5" d="M106.13,124.32c31.93-10.19,67.55-7.49,97.79,6.86,8.63,4.07,16.78,9.09,24.3,14.97,2.13,1.67,5.15-1.32,3-3-27.78-21.55-62.69-31.78-97.7-28.65-9.69.87-19.25,2.79-28.52,5.73-2.6.83-1.49,4.93,1.13,4.1h0Z"/><path class="cls-5" d="M106.13,152.65c31.93-10.19,67.55-7.49,97.79,6.86,8.63,4.07,16.78,9.09,24.3,14.97,2.13,1.67,5.15-1.32,3-3-27.78-21.55-62.69-31.78-97.7-28.65-9.69.87-19.25,2.79-28.52,5.73-2.6.83-1.49,4.93,1.13,4.1h0Z"/><path class="cls-5" d="M106.13,180.98c31.93-10.19,67.55-7.49,97.79,6.86,8.63,4.07,16.78,9.09,24.3,14.97,2.13,1.67,5.15-1.32,3-3-27.78-21.55-62.69-31.78-97.7-28.65-9.69.87-19.25,2.79-28.52,5.73-2.6.83-1.49,4.93,1.13,4.1h0Z"/><path class="cls-5" d="M106.13,209.3c31.93-10.19,67.55-7.49,97.79,6.86,8.63,4.07,16.78,9.09,24.3,14.97,2.13,1.67,5.15-1.32,3-3-27.78-21.55-62.69-31.78-97.7-28.65-9.69.87-19.25,2.79-28.52,5.73-2.6.83-1.49,4.93,1.13,4.1h0Z"/><path class="cls-12" d="M221.16,33.55v67.93c0,1.35-2.36,2.48-5.54,2.79-.03,0-.05,0-.08.01-.53.04-1.09.07-1.66.07-1.75.03-3.5-.25-5.15-.84-.15-.06-.3-.13-.45-.19-.14-.08-.29-.15-.43-.23-.79-.47-1.25-1.02-1.25-1.61V27.69c5.01,1.55,9.87,3.51,14.56,5.86Z"/><rect class="cls-2" x="249.6" y="49.31" width="2.08" height="242.23"/><path class="cls-3" d="M477.9,215.13c5.57-.51,9.68-5.44,9.17-11.01-.05-.59-.16-1.18-.32-1.76l43.18-20.16,25.99-42.05-20.43-8.25-17.54,33.88-44.38,29.58c-5.32,1.84-8.13,7.65-6.29,12.96,1.54,4.45,5.93,7.26,10.62,6.8h0Z"/><path class="cls-8" d="M571.96,99.88s5.09,1.66-.5,11.53c-4.47,7.9-26.25,53.42-35.14,62.35,1.92,3.08,1.52,7.08-.99,9.71l-20.52-16.29c-.39-5.92,3.53-6.51,5.85-6.31l4.72-16.73,16.47-41.28,26.46-4.25,3.66,1.27Z"/><path class="cls-1" d="M572.4,22.51c.97-3.92,8.01-6.82-4.05-12.3-2.93-1.33-2.81-5.91-5.28-7.96s-6.1-3-8.98-1.57c-2.57,1.28-4.02,4.18-4.33,7.03-.15,2.87.18,5.75.98,8.51l-.23.34c4.78,3.66,9.55,7.31,14.33,10.97,1.76,1.34,4.05,2.75,6.02,1.74,2.23-1.14.94-4.34,1.54-6.77Z"/></svg>