<svg viewBox="0 0 32 41" fill="#FBFCF8" xmlns="http://www.w3.org/2000/svg" className="active:bg-sfgreen">
<path d="M2.44553 39.1255L2.44095 39.1229C2.33085 39.0611 2.23918 38.971 2.17531 38.8621C2.11159 38.7534 2.07783 38.6297 2.07745 38.5038V6.0448V6.0279L2.07707 6.011C2.05606 5.0786 2.40332 4.17547 3.04361 3.49735C3.67844 2.825 4.55061 2.42755 5.47388 2.38916H26.6592C27.5824 2.42755 28.4546 2.825 29.0894 3.49735C29.7297 4.17547 30.077 5.07859 30.056 6.011L30.0556 6.0279V6.0448V38.4996C30.0543 38.6229 30.021 38.7437 29.959 38.8503C29.8965 38.9579 29.807 39.0471 29.6992 39.1093L30.4492 40.4084L29.6992 39.1094C29.5909 39.1719 29.468 39.2048 29.3429 39.2048C29.2177 39.2048 29.0948 39.1719 28.9865 39.1094L28.9865 39.1093L28.9755 39.1031L16.4293 32.0002L15.6682 31.5693L14.9183 32.0195L3.12444 39.1002L3.1149 39.106L3.10545 39.1118C3.0047 39.1744 2.89004 39.2107 2.7719 39.2177C2.65739 39.2137 2.54541 39.1821 2.44553 39.1255Z" stroke="#1D1C1C" stroke-width="3"/>
</svg>
