<svg width="35" height="36" viewBox="0 0 35 36" fill="none" xmlns="http://www.w3.org/2000/svg">
<path d="M17.5836 3.74048C14.7654 3.74048 12.0104 4.57619 9.66709 6.14193C7.32379 7.70768 5.49741 9.93313 4.41891 12.5369C3.3404 15.1406 3.05822 18.0057 3.60803 20.7698C4.15785 23.5339 5.51497 26.0729 7.50779 28.0657C9.5006 30.0585 12.0396 31.4157 14.8037 31.9655C17.5678 32.5153 20.4329 32.2331 23.0366 31.1546C25.6404 30.0761 27.8658 28.2497 29.4316 25.9064C30.9973 23.5631 31.833 20.8081 31.833 17.9899C31.833 16.1186 31.4645 14.2657 30.7484 12.5369C30.0323 10.8081 28.9827 9.23721 27.6595 7.91403C26.3363 6.59085 24.7655 5.54125 23.0366 4.82515C21.3078 4.10905 19.4549 3.74048 17.5836 3.74048ZM17.5836 29.3894C15.329 29.3894 13.125 28.7208 11.2504 27.4682C9.37576 26.2156 7.91465 24.4353 7.05185 22.3523C6.18905 20.2693 5.9633 17.9772 6.40315 15.7659C6.84301 13.5547 7.9287 11.5235 9.52295 9.9292C11.1172 8.33495 13.1484 7.24925 15.3597 6.8094C17.571 6.36954 19.863 6.59529 21.946 7.45809C24.029 8.3209 25.8094 9.782 27.062 11.6566C28.3146 13.5313 28.9831 15.7353 28.9831 17.9899C28.9831 21.0132 27.7821 23.9127 25.6443 26.0506C23.5065 28.1884 20.607 29.3894 17.5836 29.3894Z" fill="#1D1C1C"/>
<path d="M23.2834 16.565H19.0086V12.2902C19.0086 11.9123 18.8584 11.5498 18.5912 11.2826C18.324 11.0154 17.9615 10.8652 17.5836 10.8652C17.2057 10.8652 16.8433 11.0154 16.576 11.2826C16.3088 11.5498 16.1587 11.9123 16.1587 12.2902V17.9899C16.1587 18.3678 16.3088 18.7303 16.576 18.9975C16.8433 19.2647 17.2057 19.4149 17.5836 19.4149H23.2834C23.6613 19.4149 24.0237 19.2647 24.291 18.9975C24.5582 18.7303 24.7083 18.3678 24.7083 17.9899C24.7083 17.612 24.5582 17.2496 24.291 16.9823C24.0237 16.7151 23.6613 16.565 23.2834 16.565Z" fill="#1D1C1C"/>
</svg>
