<svg width="26" height="25" viewBox="0 0 26 25" fill="none" xmlns="http://www.w3.org/2000/svg">
<path d="M24.9128 21.285L20.1434 16.5156C19.9281 16.3004 19.6363 16.1808 19.3302 16.1808H18.5504C19.8707 14.4921 20.6552 12.3681 20.6552 10.0576C20.6552 4.56105 16.2016 0.107391 10.7051 0.107391C5.20855 0.107391 0.754883 4.56105 0.754883 10.0576C0.754883 15.5541 5.20855 20.0078 10.7051 20.0078C13.0156 20.0078 15.1396 19.2232 16.8283 17.9029V18.6827C16.8283 18.9888 16.9478 19.2806 17.1631 19.4959L21.9325 24.2653C22.3822 24.715 23.1093 24.715 23.5542 24.2653L24.908 22.9115C25.3577 22.4618 25.3577 21.7347 24.9128 21.285ZM10.7051 16.1808C7.32296 16.1808 4.58188 13.4445 4.58188 10.0576C4.58188 6.67547 7.31818 3.93438 10.7051 3.93438C14.0872 3.93438 16.8283 6.67068 16.8283 10.0576C16.8283 13.4397 14.092 16.1808 10.7051 16.1808Z" fill="#1D1C1C"/>
</svg>
