<svg viewBox="0 0 49 44" fill="none" xmlns="http://www.w3.org/2000/svg">
<path d="M47.9712 19.5021H1.97116C1.42116 19.5021 0.971161 19.9521 0.971161 20.5021C0.971161 33.1821 11.2912 43.5021 23.9712 43.5021H25.9712C38.6512 43.5021 48.9712 33.1821 48.9712 20.5021C48.9712 19.9521 48.5212 19.5021 47.9712 19.5021Z" fill="black"/>
<path d="M10.2412 15.1521C9.86116 15.5521 9.88116 16.1921 10.2812 16.5621C10.4712 16.7421 10.7212 16.8321 10.9612 16.8321C11.2312 16.8321 11.4912 16.7221 11.6912 16.5121L14.4112 13.6121C15.1912 12.7821 15.5812 11.6621 15.5012 10.5321C15.4212 9.40212 14.8712 8.35212 13.9812 7.64212C13.0912 6.93212 12.9412 5.62212 13.6612 4.72212L15.7412 2.12212C16.0812 1.69212 16.0112 1.06212 15.5812 0.712118C15.1512 0.372118 14.5212 0.442118 14.1712 0.872118L12.0912 3.47212C10.6912 5.22212 10.9712 7.79212 12.7312 9.20212C13.1912 9.57212 13.4612 10.0921 13.5012 10.6721C13.5412 11.2521 13.3412 11.8121 12.9412 12.2421L10.2412 15.1521Z" fill="black"/>
<path d="M21.8412 15.1521C21.4612 15.5521 21.4812 16.1921 21.8912 16.5621C22.0812 16.7421 22.3312 16.8321 22.5712 16.8321C22.8412 16.8321 23.1012 16.7221 23.3012 16.5121L26.0212 13.6121C26.8012 12.7821 27.1912 11.6621 27.1112 10.5321C27.0312 9.40212 26.4812 8.35212 25.5912 7.64212C25.1612 7.29212 24.8812 6.80212 24.8212 6.25212C24.7612 5.70212 24.9212 5.16212 25.2612 4.72212L27.3412 2.12212C27.6812 1.69212 27.6112 1.06212 27.1812 0.712118C26.7512 0.372118 26.1212 0.442118 25.7712 0.872118L23.6912 3.47212C23.0112 4.32212 22.7012 5.38212 22.8212 6.47212C22.9412 7.55212 23.4812 8.52212 24.3212 9.20212C24.7812 9.57212 25.0512 10.0921 25.0912 10.6721C25.1312 11.2521 24.9312 11.8121 24.5312 12.2421L21.8412 15.1521Z" fill="black"/>
<path d="M33.4412 15.1521C33.0612 15.5521 33.0812 16.1921 33.4812 16.5621C33.6712 16.7421 33.9212 16.8321 34.1612 16.8321C34.4312 16.8321 34.6912 16.7221 34.8912 16.5121L37.6112 13.6121C38.3912 12.7821 38.7812 11.6621 38.7012 10.5321C38.6212 9.40212 38.0712 8.35212 37.1812 7.64212C36.7512 7.29212 36.4712 6.80212 36.4112 6.25212C36.3512 5.70212 36.5112 5.16212 36.8512 4.72212L38.9312 2.12212C39.2712 1.69212 39.2012 1.06212 38.7712 0.712118C38.3412 0.372118 37.7112 0.442118 37.3612 0.872118L35.2812 3.47212C34.6012 4.32212 34.2912 5.38212 34.4112 6.47212C34.5312 7.56212 35.0612 8.52212 35.9112 9.20212C36.3712 9.57212 36.6412 10.0921 36.6812 10.6721C36.7212 11.2521 36.5212 11.8121 36.1212 12.2421L33.4412 15.1521Z" fill="black"/>
</svg>
